<svg width="38" height="26" viewBox="0 0 38 26" fill="none" xmlns="http://www.w3.org/2000/svg">
<rect width="38" height="26" rx="4" fill="#6C6C6C"/>
<path d="M22.5305 10.4684C22.5305 12.4896 21.5612 14.2837 20.0561 15.411L21.5377 17.3866C22.6132 16.5822 23.4862 15.538 24.0873 14.337C24.6883 13.136 25.0008 11.8114 24.9999 10.4684H22.5305ZM16.3568 4.29467C17.9941 4.29467 19.5644 4.94511 20.7222 6.1029C21.88 7.26069 22.5305 8.83099 22.5305 10.4684H24.9999C24.9999 8.17605 24.0893 5.97762 22.4684 4.35672C20.8475 2.73581 18.6491 1.8252 16.3568 1.8252V4.29467ZM10.1831 10.4684C10.1831 8.83099 10.8335 7.26069 11.9913 6.1029C13.1491 4.94511 14.7194 4.29467 16.3568 4.29467V1.8252C14.0645 1.8252 11.8661 2.73581 10.2451 4.35672C8.62424 5.97762 7.71362 8.17605 7.71362 10.4684H10.1831ZM12.6575 15.411C11.8887 14.8367 11.2647 14.0908 10.8351 13.2327C10.4055 12.3746 10.1822 11.428 10.1831 10.4684H7.71362C7.71276 11.8114 8.02527 13.136 8.62631 14.337C9.22735 15.538 10.1003 16.5822 11.1758 17.3866L12.6575 15.411ZM15.1183 22.4984C15.0793 20.6157 14.6903 18.7566 13.9713 17.0162L11.6895 17.9607C12.2896 19.414 12.6168 20.9698 12.6501 22.5503L15.1183 22.4984ZM18.0138 21.8415C17.4993 22.0988 16.932 22.2328 16.3568 22.2328C15.7816 22.2328 15.2142 22.0988 14.6998 21.8415L13.5959 24.0505C14.4531 24.4791 15.3984 24.7022 16.3568 24.7022C17.3152 24.7022 18.2604 24.4791 19.1177 24.0505L18.0138 21.8415ZM18.7423 17.0174C18.023 18.7574 17.6336 20.616 17.594 22.4984L20.0635 22.5503C20.0968 20.9698 20.424 19.414 21.0241 17.9607L18.7423 17.0174ZM19.1177 24.0505C19.397 23.9102 19.6327 23.6964 19.7993 23.432C19.966 23.1676 20.0574 22.8627 20.0635 22.5503L17.594 22.4984C17.5974 22.361 17.6383 22.2272 17.7123 22.1114C17.7863 21.9956 17.8906 21.9023 18.0138 21.8415L19.1177 24.0505ZM12.6501 22.5503C12.6625 23.1726 13.0131 23.7591 13.5959 24.0505L14.6998 21.8415C14.823 21.9023 14.9273 21.9956 15.0013 22.1114C15.0753 22.2272 15.1162 22.361 15.1196 22.4984L12.6501 22.5503ZM11.1758 17.3866C11.361 17.5273 11.4709 17.6088 11.5475 17.6706C11.6253 17.7348 11.6105 17.7323 11.5759 17.6879L13.5268 16.1741C13.2959 15.8753 12.9378 15.6209 12.6575 15.411L11.1758 17.3866ZM13.9713 17.0162C13.875 16.7828 13.7527 16.4642 13.5268 16.1741L11.5759 17.6879C11.5598 17.6656 11.5561 17.6545 11.5722 17.6879C11.6116 17.7781 11.6503 17.8686 11.6882 17.9595L13.9713 17.0162ZM20.0561 15.411C19.7758 15.6209 19.4165 15.8765 19.1856 16.1741L21.1377 17.6879C21.1043 17.7311 21.0883 17.7348 21.1661 17.6718C21.2426 17.6088 21.3513 17.5273 21.5377 17.3878L20.0561 15.411ZM21.0241 17.9607L21.0982 17.7842L21.1414 17.6879C21.1574 17.6545 21.1537 17.6656 21.1377 17.6879L19.1856 16.1741C18.9596 16.4655 18.8386 16.7828 18.7423 17.0174L21.0241 17.9607Z" fill="white"/>
<path d="M20.0513 17.877C18.9578 18.6079 17.6722 18.998 16.3569 18.998C15.0417 18.998 13.756 18.6079 12.6626 17.877" stroke="white" stroke-width="2"/>
<path d="M29.8889 16.7778V21.2223H32.1111" stroke="#272727" stroke-linecap="round" stroke-linejoin="round"/>
<path fill-rule="evenodd" clip-rule="evenodd" d="M3 10.6667C3 10.4899 3.07024 10.3203 3.19526 10.1953C3.32029 10.0702 3.48986 10 3.66667 10H4.33333C4.51014 10 4.67971 10.0702 4.80474 10.1953C4.92976 10.3203 5 10.4899 5 10.6667V12H6.33333C6.51014 12 6.67971 12.0702 6.80474 12.1953C6.92976 12.3203 7 12.4899 7 12.6667V13.3333C7 13.5101 6.92976 13.6797 6.80474 13.8047C6.67971 13.9298 6.51014 14 6.33333 14H5V15.3333C5 15.5101 4.92976 15.6797 4.80474 15.8047C4.67971 15.9298 4.51014 16 4.33333 16H3.66667C3.48986 16 3.32029 15.9298 3.19526 15.8047C3.07024 15.6797 3 15.5101 3 15.3333V14H1.66667C1.48986 14 1.32029 13.9298 1.19526 13.8047C1.07024 13.6797 1 13.5101 1 13.3333V12.6667C1 12.4899 1.07024 12.3203 1.19526 12.1953C1.32029 12.0702 1.48986 12 1.66667 12H3V10.6667Z" fill="white"/>
<path d="M26 19C26 16.6428 26 15.4644 26.7322 14.7322C27.4644 14 28.6433 14 31 14C33.3572 14 34.5356 14 35.2678 14.7322C36 15.4644 36 16.6433 36 19C36 21.3572 36 22.5356 35.2678 23.2678C34.5356 24 33.3567 24 31 24C28.6428 24 27.4644 24 26.7322 23.2678C26 22.5356 26 21.3567 26 19Z" stroke="#272727" stroke-linecap="round" stroke-linejoin="round"/>
</svg>
