<svg width="38" height="26" viewBox="0 0 38 26" fill="none" xmlns="http://www.w3.org/2000/svg">
<rect width="38" height="26" rx="4" fill="#6C6C6C"/>
<path d="M19.9322 11.9603C19.6793 10.031 18.7319 8.26004 17.2675 6.97889C15.803 5.69773 13.9219 4.99422 11.9761 5.00004C10.0303 5.00585 8.15341 5.72061 6.69664 7.0105C5.23987 8.30039 4.30314 10.077 4.0618 12.0077C3.82045 13.9385 4.29105 15.891 5.38548 17.4998C6.47991 19.1086 8.12316 20.2633 10.0076 20.7479C11.8921 21.2325 13.8885 21.0137 15.6233 20.1325C17.358 19.2512 18.7122 17.7679 19.4322 15.9603M19.9322 20.9603V15.9603H14.9322" stroke="white" stroke-width="2" stroke-linecap="round" stroke-linejoin="round"/>
<path d="M32.3889 16.7778H29.6111V19.0001M29.6111 19.0001V21.2223H32.3889M29.6111 19.0001H31.8333" stroke="#272727" stroke-linecap="round" stroke-linejoin="round"/>
<path d="M26 19C26 16.6428 26 15.4644 26.7322 14.7322C27.4644 14 28.6433 14 31 14C33.3572 14 34.5356 14 35.2678 14.7322C36 15.4644 36 16.6433 36 19C36 21.3572 36 22.5356 35.2678 23.2678C34.5356 24 33.3567 24 31 24C28.6428 24 27.4644 24 26.7322 23.2678C26 22.5356 26 21.3567 26 19Z" stroke="#272727" stroke-linecap="round" stroke-linejoin="round"/>
</svg>
