<svg width="39" height="26" viewBox="0 0 39 26" fill="none" xmlns="http://www.w3.org/2000/svg">
<rect width="39" height="26" rx="4" fill="#6C6C6C"/>
<path d="M12 4C12.2549 4.00028 12.5 4.09788 12.6854 4.27285C12.8707 4.44782 12.9822 4.68695 12.9972 4.94139C13.0121 5.19584 12.9293 5.44638 12.7657 5.64183C12.6021 5.83729 12.3701 5.9629 12.117 5.993L12 6H6V20H20V14C20.0003 13.7451 20.0979 13.5 20.2728 13.3146C20.4478 13.1293 20.687 13.0178 20.9414 13.0028C21.1958 12.9879 21.4464 13.0707 21.6418 13.2343C21.8373 13.3979 21.9629 13.6299 21.993 13.883L22 14V20C22.0002 20.5046 21.8096 20.9906 21.4665 21.3605C21.1234 21.7305 20.6532 21.9572 20.15 21.995L20 22H6C5.49542 22.0002 5.00943 21.8096 4.63945 21.4665C4.26947 21.1234 4.04284 20.6532 4.005 20.15L4 20V6C3.99984 5.49542 4.19041 5.00943 4.5335 4.63945C4.87659 4.26947 5.34684 4.04284 5.85 4.005L6 4H12ZM20.75 4C21.44 4 22 4.56 22 5.25V9C22 9.26522 21.8946 9.51957 21.7071 9.70711C21.5196 9.89464 21.2652 10 21 10C20.7348 10 20.4804 9.89464 20.2929 9.70711C20.1054 9.51957 20 9.26522 20 9V7.414L13.414 14H15C15.2652 14 15.5196 14.1054 15.7071 14.2929C15.8946 14.4804 16 14.7348 16 15C16 15.2652 15.8946 15.5196 15.7071 15.7071C15.5196 15.8946 15.2652 16 15 16H11.25C10.56 16 10 15.44 10 14.75V11C10 10.7348 10.1054 10.4804 10.2929 10.2929C10.4804 10.1054 10.7348 10 11 10C11.2652 10 11.5196 10.1054 11.7071 10.2929C11.8946 10.4804 12 10.7348 12 11V12.586L18.586 6H17C16.7348 6 16.4804 5.89464 16.2929 5.70711C16.1054 5.51957 16 5.26522 16 5C16 4.73478 16.1054 4.48043 16.2929 4.29289C16.4804 4.10536 16.7348 4 17 4H20.75Z" fill="white"/>
<path d="M30.3334 16.7778V21.2223L32 19.0001L33.6667 21.2223V16.7778" stroke="#272727" stroke-linecap="round" stroke-linejoin="round"/>
<path d="M27 19C27 16.6428 27 15.4644 27.7322 14.7322C28.4644 14 29.6433 14 32 14C34.3572 14 35.5356 14 36.2678 14.7322C37 15.4644 37 16.6433 37 19C37 21.3572 37 22.5356 36.2678 23.2678C35.5356 24 34.3567 24 32 24C29.6428 24 28.4644 24 27.7322 23.2678C27 22.5356 27 21.3567 27 19Z" stroke="#272727" stroke-linecap="round" stroke-linejoin="round"/>
</svg>
