<svg width="38" height="26" viewBox="0 0 38 26" fill="none" xmlns="http://www.w3.org/2000/svg">
<rect width="38" height="26" rx="4" fill="#6C6C6C"/>
<path d="M9.46399 7.70701C9.27652 7.51948 9.1712 7.26518 9.1712 7.00001C9.1712 6.73485 9.27652 6.48054 9.46399 6.29301L12.222 3.53501C12.3241 3.43281 12.4454 3.35174 12.5789 3.29643C12.7124 3.24112 12.8555 3.21265 13 3.21265C13.1445 3.21265 13.2876 3.24112 13.4211 3.29643C13.5546 3.35174 13.6758 3.43281 13.778 3.53501L16.535 6.29301C16.6305 6.38526 16.7067 6.4956 16.7591 6.61761C16.8115 6.73961 16.8391 6.87083 16.8402 7.00361C16.8414 7.13639 16.8161 7.26807 16.7658 7.39097C16.7155 7.51386 16.6413 7.62551 16.5474 7.71941C16.4535 7.8133 16.3418 7.88755 16.2189 7.93783C16.096 7.98811 15.9644 8.01342 15.8316 8.01226C15.6988 8.01111 15.5676 7.98352 15.4456 7.93111C15.3236 7.8787 15.2132 7.80252 15.121 7.70701L14 6.58601V12H19.414L18.293 10.879C18.1053 10.6915 17.9999 10.4371 17.9998 10.1719C17.9997 9.9066 18.105 9.65215 18.2925 9.46451C18.48 9.27687 18.7344 9.1714 18.9996 9.17131C19.2649 9.17121 19.5193 9.2765 19.707 9.46401L22.465 12.222C22.5672 12.3242 22.6483 12.4454 22.7036 12.5789C22.7589 12.7124 22.7874 12.8555 22.7874 13C22.7874 13.1445 22.7589 13.2876 22.7036 13.4211C22.6483 13.5546 22.5672 13.6759 22.465 13.778L19.707 16.536C19.5193 16.7235 19.2649 16.8288 18.9996 16.8287C18.7344 16.8286 18.48 16.7232 18.2925 16.5355C18.105 16.3479 17.9997 16.0934 17.9998 15.8282C17.9999 15.5629 18.1053 15.3085 18.293 15.121L19.414 14H14V19.414L15.121 18.293C15.3096 18.1109 15.5622 18.0101 15.8244 18.0123C16.0866 18.0146 16.3374 18.1198 16.5228 18.3052C16.7082 18.4906 16.8134 18.7414 16.8157 19.0036C16.8179 19.2658 16.7171 19.5184 16.535 19.707L13.778 22.465C13.6758 22.5672 13.5546 22.6483 13.4211 22.7036C13.2876 22.7589 13.1445 22.7874 13 22.7874C12.8555 22.7874 12.7124 22.7589 12.5789 22.7036C12.4454 22.6483 12.3241 22.5672 12.222 22.465L9.46399 19.707C9.37114 19.6141 9.29751 19.5038 9.24729 19.3824C9.19706 19.2611 9.17124 19.131 9.17129 18.9997C9.17133 18.8683 9.19725 18.7383 9.24756 18.6169C9.29786 18.4956 9.37158 18.3854 9.46449 18.2925C9.5574 18.1997 9.66769 18.126 9.78905 18.0758C9.91042 18.0256 10.0405 17.9998 10.1718 17.9998C10.3032 17.9999 10.4332 18.0258 10.5546 18.0761C10.6759 18.1264 10.7861 18.2001 10.879 18.293L11.999 19.414V14H6.58699L7.70799 15.121C7.8009 15.2139 7.87461 15.3241 7.92492 15.4454C7.97523 15.5668 8.00114 15.6968 8.00119 15.8282C8.00124 15.9595 7.97541 16.0896 7.92519 16.2109C7.87497 16.3323 7.80133 16.4426 7.70849 16.5355C7.61564 16.6284 7.50541 16.7021 7.38408 16.7524C7.26274 16.8028 7.13269 16.8287 7.00134 16.8287C6.86999 16.8288 6.73992 16.8029 6.61855 16.7527C6.49719 16.7025 6.3869 16.6289 6.29399 16.536L3.53599 13.778C3.43379 13.6759 3.35272 13.5546 3.2974 13.4211C3.24209 13.2876 3.21362 13.1445 3.21362 13C3.21362 12.8555 3.24209 12.7124 3.2974 12.5789C3.35272 12.4454 3.43379 12.3242 3.53599 12.222L6.29399 9.46401C6.48176 9.27664 6.73628 9.17153 7.00155 9.17181C7.26682 9.17209 7.52111 9.27774 7.70849 9.46551C7.89586 9.65328 8.00097 9.9078 8.00069 10.1731C8.00041 10.4383 7.89476 10.6926 7.70699 10.88L6.58599 12H12V6.58701L10.879 7.70701C10.7861 7.79999 10.6758 7.87375 10.5544 7.92407C10.433 7.9744 10.3029 8.0003 10.1715 8.0003C10.0401 8.0003 9.90995 7.9744 9.78855 7.92407C9.66715 7.87375 9.55686 7.79999 9.46399 7.70701Z" fill="white"/>
<path d="M32.6667 21.2223V17.8889C32.6667 17.5943 32.5496 17.3116 32.3413 17.1033C32.1329 16.8949 31.8503 16.7778 31.5556 16.7778H30.4445C30.1498 16.7778 29.8672 16.8949 29.6588 17.1033C29.4504 17.3116 29.3334 17.5943 29.3334 17.8889V20.1112C29.3334 20.4059 29.4504 20.6885 29.6588 20.8968C29.8672 21.1052 30.1498 21.2223 30.4445 21.2223H32.6667ZM32.6667 21.2223L31.5556 20.1112M32.6667 21.2223L32.9445 21.5001" stroke="#272727" stroke-linecap="round" stroke-linejoin="round"/>
<path d="M26 19C26 16.6428 26 15.4644 26.7322 14.7322C27.4644 14 28.6433 14 31 14C33.3572 14 34.5356 14 35.2678 14.7322C36 15.4644 36 16.6433 36 19C36 21.3572 36 22.5356 35.2678 23.2678C34.5356 24 33.3567 24 31 24C28.6428 24 27.4644 24 26.7322 23.2678C26 22.5356 26 21.3567 26 19Z" stroke="#272727" stroke-linecap="round" stroke-linejoin="round"/>
</svg>
