<svg width="20" height="20" viewBox="0 0 20 20" fill="none" xmlns="http://www.w3.org/2000/svg">
<path d="M10 0C4.475 0 1.64501e-06 4.475 1.64501e-06 10C-0.00120241 12.0992 0.6586 14.1454 1.88581 15.8484C3.11302 17.5515 4.84533 18.8249 6.837 19.488C7.337 19.575 7.525 19.275 7.525 19.012C7.525 18.775 7.512 17.988 7.512 17.15C5 17.613 4.35 16.538 4.15 15.975C4.037 15.687 3.55 14.8 3.125 14.562C2.775 14.375 2.275 13.912 3.112 13.9C3.9 13.887 4.462 14.625 4.65 14.925C5.55 16.437 6.987 16.012 7.562 15.75C7.65 15.1 7.912 14.663 8.2 14.413C5.975 14.163 3.65 13.3 3.65 9.475C3.65 8.387 4.037 7.488 4.675 6.788C4.575 6.538 4.225 5.513 4.775 4.138C4.775 4.138 5.612 3.875 7.525 5.162C8.33911 4.9364 9.18021 4.82302 10.025 4.825C10.875 4.825 11.725 4.937 12.525 5.162C14.438 3.862 15.275 4.138 15.275 4.138C15.825 5.513 15.475 6.538 15.375 6.788C16.012 7.488 16.4 8.375 16.4 9.475C16.4 13.313 14.063 14.163 11.838 14.413C12.2 14.725 12.513 15.325 12.513 16.263C12.513 17.6 12.5 18.675 12.5 19.013C12.5 19.275 12.688 19.587 13.188 19.487C15.1728 18.8166 16.8975 17.5408 18.1193 15.8389C19.3411 14.1371 19.9985 12.095 19.999 10C19.999 4.475 15.524 0 9.999 0" fill="#C8C8C8"/>
</svg>
