<svg width="20" height="20" viewBox="0 0 20 20" fill="none" xmlns="http://www.w3.org/2000/svg">
<path d="M16.25 0C17.112 0 17.9386 0.34241 18.5481 0.951903C19.1576 1.5614 19.5 2.38805 19.5 3.25V16.25C19.5 17.112 19.1576 17.9386 18.5481 18.5481C17.9386 19.1576 17.112 19.5 16.25 19.5H3.25C2.38805 19.5 1.5614 19.1576 0.951903 18.5481C0.34241 17.9386 0 17.112 0 16.25V3.25C0 2.38805 0.34241 1.5614 0.951903 0.951903C1.5614 0.34241 2.38805 0 3.25 0H16.25ZM16.25 2.16667H3.25C2.96268 2.16667 2.68713 2.2808 2.48397 2.48397C2.2808 2.68713 2.16667 2.96268 2.16667 3.25V16.25C2.16667 16.5373 2.2808 16.8129 2.48397 17.016C2.68713 17.2192 2.96268 17.3333 3.25 17.3333H16.25C16.5373 17.3333 16.8129 17.2192 17.016 17.016C17.2192 16.8129 17.3333 16.5373 17.3333 16.25V3.25C17.3333 2.96268 17.2192 2.68713 17.016 2.48397C16.8129 2.2808 16.5373 2.16667 16.25 2.16667ZM5.41667 7.58333C5.68201 7.58337 5.93812 7.68079 6.1364 7.85711C6.33469 8.03343 6.46137 8.2764 6.49242 8.53992L6.5 8.66667V14.0833C6.49969 14.3595 6.39396 14.625 6.20441 14.8258C6.01486 15.0266 5.7558 15.1474 5.48016 15.1636C5.20451 15.1798 4.93309 15.0901 4.72135 14.9129C4.50961 14.7357 4.37353 14.4843 4.34092 14.2101L4.33333 14.0833V8.66667C4.33333 8.37935 4.44747 8.1038 4.65063 7.90063C4.8538 7.69747 5.12935 7.58333 5.41667 7.58333ZM8.66667 6.5C8.92038 6.49996 9.16605 6.58897 9.36086 6.75151C9.55567 6.91405 9.68725 7.1398 9.73267 7.38942C9.95066 7.263 10.176 7.14977 10.4076 7.05033C11.1302 6.74158 12.2124 6.5715 13.1896 6.87808C13.702 7.04058 14.2166 7.34392 14.5979 7.86067C14.9392 8.32108 15.1233 8.88117 15.1602 9.51058L15.1667 9.75V14.0833C15.1664 14.3595 15.0606 14.625 14.8711 14.8258C14.6815 15.0266 14.4225 15.1474 14.1468 15.1636C13.8712 15.1798 13.5998 15.0901 13.388 14.9129C13.1763 14.7357 13.0402 14.4843 13.0076 14.2101L13 14.0833V9.75C13 9.3925 12.9133 9.22567 12.857 9.14875C12.7761 9.04816 12.6647 8.97667 12.5396 8.94508C12.1626 8.82592 11.6198 8.88875 11.2591 9.04258C10.7174 9.27442 10.2213 9.63842 9.88325 9.97533L9.75 10.1183V14.0833C9.74969 14.3595 9.64396 14.625 9.45441 14.8258C9.26486 15.0266 9.0058 15.1474 8.73016 15.1636C8.45451 15.1798 8.18309 15.0901 7.97135 14.9129C7.75961 14.7357 7.62353 14.4843 7.59092 14.2101L7.58333 14.0833V7.58333C7.58333 7.29602 7.69747 7.02047 7.90063 6.8173C8.1038 6.61414 8.37935 6.5 8.66667 6.5ZM5.41667 4.33333C5.70398 4.33333 5.97953 4.44747 6.1827 4.65063C6.38586 4.8538 6.5 5.12935 6.5 5.41667C6.5 5.70398 6.38586 5.97953 6.1827 6.1827C5.97953 6.38586 5.70398 6.5 5.41667 6.5C5.12935 6.5 4.8538 6.38586 4.65063 6.1827C4.44747 5.97953 4.33333 5.70398 4.33333 5.41667C4.33333 5.12935 4.44747 4.8538 4.65063 4.65063C4.8538 4.44747 5.12935 4.33333 5.41667 4.33333Z" fill="#C8C8C8"/>
</svg>
