{
    "asset" : {
        "generator" : "Khronos glTF Blender I/O v1.7.33",
        "version" : "2.0"
    },
    "scene" : 0,
    "scenes" : [
        {
            "name" : "Scene",
            "nodes" : [
                17
            ]
        }
    ],
    "nodes" : [
        {
            "name" : "about",
            "rotation" : [
                -0.7071068286895752,
                0,
                0,
                0.7071068286895752
            ]
        },
        {
            "mesh" : 0,
            "name" : "ceiling_ceiling_0"
        },
        {
            "children" : [
                1
            ],
            "name" : "ceiling",
            "rotation" : [
                -0.7071068286895752,
                0,
                0,
                0.7071068286895752
            ]
        },
        {
            "mesh" : 1,
            "name" : "floor_floor_0"
        },
        {
            "children" : [
                3
            ],
            "name" : "floor",
            "rotation" : [
                -0.7071068286895752,
                0,
                0,
                0.7071068286895752
            ]
        },
        {
            "mesh" : 2,
            "name" : "glass_glass_0"
        },
        {
            "children" : [
                5
            ],
            "name" : "glass",
            "rotation" : [
                -0.7071068286895752,
                0,
                0,
                0.7071068286895752
            ]
        },
        {
            "mesh" : 3,
            "name" : "post_post_0"
        },
        {
            "children" : [
                7
            ],
            "name" : "post",
            "rotation" : [
                -0.7071068286895752,
                0,
                0,
                0.7071068286895752
            ]
        },
        {
            "mesh" : 4,
            "name" : "walls_walls_0"
        },
        {
            "mesh" : 5,
            "name" : "walls_walls_0.001"
        },
        {
            "children" : [
                9,
                10
            ],
            "name" : "walls",
            "rotation" : [
                -0.7071068286895752,
                0,
                0,
                0.7071068286895752
            ]
        },
        {
            "mesh" : 6,
            "name" : "windows_windows_0"
        },
        {
            "children" : [
                12
            ],
            "name" : "windows",
            "rotation" : [
                -0.7071068286895752,
                0,
                0,
                0.7071068286895752
            ]
        },
        {
            "children" : [
                0,
                2,
                4,
                6,
                8,
                11,
                13
            ],
            "name" : "RootNode"
        },
        {
            "children" : [
                14
            ],
            "name" : "VR Art Gallery 2020 L _ Baked + Max Scene.fbx",
            "rotation" : [
                0.7071068286895752,
                0,
                0,
                0.7071068286895752
            ]
        },
        {
            "children" : [
                15
            ],
            "name" : "RootNode (model correction matrix)"
        },
        {
            "children" : [
                16
            ],
            "name" : "RootNode (gltf orientation matrix)",
            "rotation" : [
                -0.7071068286895752,
                0,
                0,
                0.7071068286895752
            ]
        }
    ],
    "materials" : [
        {
            "name" : "ceiling",
            "pbrMetallicRoughness" : {
                "baseColorTexture" : {
                    "index" : 0
                },
                "metallicFactor" : 0,
                "roughnessFactor" : 0.8929713368415833
            }
        },
        {
            "name" : "floor",
            "normalTexture" : {
                "index" : 1
            },
            "pbrMetallicRoughness" : {
                "baseColorTexture" : {
                    "index" : 2
                },
                "metallicFactor" : 0.06859195232391357,
                "metallicRoughnessTexture" : {
                    "index" : 3
                },
                "roughnessFactor" : 0.3482799232006073
            }
        },
        {
            "alphaMode" : "BLEND",
            "doubleSided" : true,
            "name" : "glass",
            "pbrMetallicRoughness" : {
                "baseColorFactor" : [
                    1,
                    1,
                    1,
                    0.2996385395526886
                ],
                "baseColorTexture" : {
                    "index" : 4
                },
                "metallicFactor" : 0,
                "roughnessFactor" : 0.8929713368415833
            }
        },
        {
            "doubleSided" : true,
            "name" : "post",
            "pbrMetallicRoughness" : {
                "baseColorTexture" : {
                    "index" : 5
                },
                "metallicFactor" : 0,
                "roughnessFactor" : 0.8929713368415833
            }
        },
        {
            "name" : "walls",
            "pbrMetallicRoughness" : {
                "baseColorTexture" : {
                    "index" : 6
                },
                "metallicFactor" : 0,
                "roughnessFactor" : 0.8929713368415833
            }
        },
        {
            "name" : "windows",
            "pbrMetallicRoughness" : {
                "baseColorTexture" : {
                    "index" : 7
                },
                "metallicFactor" : 0,
                "roughnessFactor" : 0.8929713368415833
            }
        }
    ],
    "meshes" : [
        {
            "name" : "ceiling_ceiling_0",
            "primitives" : [
                {
                    "attributes" : {
                        "POSITION" : 0,
                        "NORMAL" : 1,
                        "TEXCOORD_0" : 2,
                        "TEXCOORD_1" : 3
                    },
                    "indices" : 4,
                    "material" : 0
                }
            ]
        },
        {
            "name" : "floor_floor_0",
            "primitives" : [
                {
                    "attributes" : {
                        "POSITION" : 5,
                        "NORMAL" : 6,
                        "TEXCOORD_0" : 7
                    },
                    "indices" : 8,
                    "material" : 1
                }
            ]
        },
        {
            "name" : "glass_glass_0",
            "primitives" : [
                {
                    "attributes" : {
                        "POSITION" : 9,
                        "NORMAL" : 10,
                        "TEXCOORD_0" : 11
                    },
                    "indices" : 12,
                    "material" : 2
                }
            ]
        },
        {
            "name" : "post_post_0",
            "primitives" : [
                {
                    "attributes" : {
                        "POSITION" : 13,
                        "NORMAL" : 14,
                        "TEXCOORD_0" : 15
                    },
                    "indices" : 16,
                    "material" : 3
                }
            ]
        },
        {
            "name" : "walls_walls_0",
            "primitives" : [
                {
                    "attributes" : {
                        "POSITION" : 17,
                        "NORMAL" : 18,
                        "TEXCOORD_0" : 19
                    },
                    "indices" : 20,
                    "material" : 4
                }
            ]
        },
        {
            "name" : "walls_walls_0.001",
            "primitives" : [
                {
                    "attributes" : {
                        "POSITION" : 21,
                        "NORMAL" : 22,
                        "TEXCOORD_0" : 23
                    },
                    "indices" : 20,
                    "material" : 4
                }
            ]
        },
        {
            "name" : "windows_windows_0",
            "primitives" : [
                {
                    "attributes" : {
                        "POSITION" : 24,
                        "NORMAL" : 25,
                        "TEXCOORD_0" : 26
                    },
                    "indices" : 27,
                    "material" : 5
                }
            ]
        }
    ],
    "textures" : [
        {
            "sampler" : 0,
            "source" : 0
        },
        {
            "sampler" : 0,
            "source" : 1
        },
        {
            "sampler" : 0,
            "source" : 2
        },
        {
            "sampler" : 0,
            "source" : 3
        },
        {
            "sampler" : 0,
            "source" : 4
        },
        {
            "sampler" : 0,
            "source" : 5
        },
        {
            "sampler" : 0,
            "source" : 6
        },
        {
            "sampler" : 0,
            "source" : 7
        }
    ],
    "images" : [
        {
            "mimeType" : "image/jpeg",
            "name" : "ceiling_baseColor",
            "uri" : "textures/ceiling_baseColor.jpg"
        },
        {
            "mimeType" : "image/png",
            "name" : "floor_normal",
            "uri" : "textures/floor_normal.png"
        },
        {
            "mimeType" : "image/jpeg",
            "name" : "floor_baseColor",
            "uri" : "textures/floor_baseColor.jpg"
        },
        {
            "mimeType" : "image/png",
            "name" : "floor_metallicRoughness",
            "uri" : "textures/floor_metallicRoughness.png"
        },
        {
            "mimeType" : "image/png",
            "name" : "glass_baseColor",
            "uri" : "textures/glass_baseColor.png"
        },
        {
            "mimeType" : "image/jpeg",
            "name" : "post_baseColor",
            "uri" : "textures/post_baseColor.jpg"
        },
        {
            "mimeType" : "image/jpeg",
            "name" : "walls_baseColor",
            "uri" : "textures/walls_baseColor.jpg"
        },
        {
            "mimeType" : "image/jpeg",
            "name" : "windows_baseColor",
            "uri" : "textures/windows_baseColor.jpg"
        }
    ],
    "accessors" : [
        {
            "bufferView" : 0,
            "componentType" : 5126,
            "count" : 36435,
            "max" : [
                24.399995803833008,
                24.43288230895996,
                8.000001907348633
            ],
            "min" : [
                -24.40000343322754,
                -24.39999771118164,
                3.3497509956359863
            ],
            "type" : "VEC3"
        },
        {
            "bufferView" : 1,
            "componentType" : 5126,
            "count" : 36435,
            "type" : "VEC3"
        },
        {
            "bufferView" : 2,
            "componentType" : 5126,
            "count" : 36435,
            "type" : "VEC2"
        },
        {
            "bufferView" : 3,
            "componentType" : 5126,
            "count" : 36435,
            "type" : "VEC2"
        },
        {
            "bufferView" : 4,
            "componentType" : 5123,
            "count" : 42054,
            "type" : "SCALAR"
        },
        {
            "bufferView" : 5,
            "componentType" : 5126,
            "count" : 115,
            "max" : [
                25.000017166137695,
                25.000019073486328,
                5.000000953674316
            ],
            "min" : [
                -25.000024795532227,
                -25.000015258789062,
                0
            ],
            "type" : "VEC3"
        },
        {
            "bufferView" : 6,
            "componentType" : 5126,
            "count" : 115,
            "type" : "VEC3"
        },
        {
            "bufferView" : 7,
            "componentType" : 5126,
            "count" : 115,
            "type" : "VEC2"
        },
        {
            "bufferView" : 8,
            "componentType" : 5123,
            "count" : 186,
            "type" : "SCALAR"
        },
        {
            "bufferView" : 9,
            "componentType" : 5126,
            "count" : 16,
            "max" : [
                -0.7000007629394531,
                -24.89950180053711,
                4.850001335144043
            ],
            "min" : [
                -11.80000114440918,
                -24.89950180053711,
                0.15000128746032715
            ],
            "type" : "VEC3"
        },
        {
            "bufferView" : 10,
            "componentType" : 5126,
            "count" : 16,
            "type" : "VEC3"
        },
        {
            "bufferView" : 11,
            "componentType" : 5126,
            "count" : 16,
            "type" : "VEC2"
        },
        {
            "bufferView" : 12,
            "componentType" : 5123,
            "count" : 24,
            "type" : "SCALAR"
        },
        {
            "bufferView" : 13,
            "componentType" : 5126,
            "count" : 618,
            "max" : [
                24.142507553100586,
                22.509248733520508,
                1.100000023841858
            ],
            "min" : [
                -19.146875381469727,
                -9.46027660369873,
                -3.725290298461914e-09
            ],
            "type" : "VEC3"
        },
        {
            "bufferView" : 14,
            "componentType" : 5126,
            "count" : 618,
            "type" : "VEC3"
        },
        {
            "bufferView" : 15,
            "componentType" : 5126,
            "count" : 618,
            "type" : "VEC2"
        },
        {
            "bufferView" : 16,
            "componentType" : 5123,
            "count" : 858,
            "type" : "SCALAR"
        },
        {
            "bufferView" : 17,
            "componentType" : 5126,
            "count" : 962,
            "max" : [
                25.600000381469727,
                25.599998474121094,
                8.000000953674316
            ],
            "min" : [
                -25.600000381469727,
                -25.599998474121094,
                9.5367431640625e-07
            ],
            "type" : "VEC3"
        },
        {
            "bufferView" : 18,
            "componentType" : 5126,
            "count" : 962,
            "type" : "VEC3"
        },
        {
            "bufferView" : 19,
            "componentType" : 5126,
            "count" : 962,
            "type" : "VEC2"
        },
        {
            "bufferView" : 20,
            "componentType" : 5123,
            "count" : 1194,
            "type" : "SCALAR"
        },
        {
            "bufferView" : 21,
            "componentType" : 5126,
            "count" : 962,
            "max" : [
                25.600000381469727,
                25.599998474121094,
                8.000000953674316
            ],
            "min" : [
                -25.600000381469727,
                -25.599998474121094,
                9.5367431640625e-07
            ],
            "type" : "VEC3"
        },
        {
            "bufferView" : 22,
            "componentType" : 5126,
            "count" : 962,
            "type" : "VEC3"
        },
        {
            "bufferView" : 23,
            "componentType" : 5126,
            "count" : 962,
            "type" : "VEC2"
        },
        {
            "bufferView" : 24,
            "componentType" : 5126,
            "count" : 656,
            "max" : [
                -0.600001335144043,
                -13.100000381469727,
                8.000000953674316
            ],
            "min" : [
                -11.900001525878906,
                -24.999500274658203,
                9.5367431640625e-07
            ],
            "type" : "VEC3"
        },
        {
            "bufferView" : 25,
            "componentType" : 5126,
            "count" : 656,
            "type" : "VEC3"
        },
        {
            "bufferView" : 26,
            "componentType" : 5126,
            "count" : 656,
            "type" : "VEC2"
        },
        {
            "bufferView" : 27,
            "componentType" : 5123,
            "count" : 960,
            "type" : "SCALAR"
        }
    ],
    "bufferViews" : [
        {
            "buffer" : 0,
            "byteLength" : 437220,
            "byteOffset" : 0
        },
        {
            "buffer" : 0,
            "byteLength" : 437220,
            "byteOffset" : 437220
        },
        {
            "buffer" : 0,
            "byteLength" : 291480,
            "byteOffset" : 874440
        },
        {
            "buffer" : 0,
            "byteLength" : 291480,
            "byteOffset" : 1165920
        },
        {
            "buffer" : 0,
            "byteLength" : 84108,
            "byteOffset" : 1457400
        },
        {
            "buffer" : 0,
            "byteLength" : 1380,
            "byteOffset" : 1541508
        },
        {
            "buffer" : 0,
            "byteLength" : 1380,
            "byteOffset" : 1542888
        },
        {
            "buffer" : 0,
            "byteLength" : 920,
            "byteOffset" : 1544268
        },
        {
            "buffer" : 0,
            "byteLength" : 372,
            "byteOffset" : 1545188
        },
        {
            "buffer" : 0,
            "byteLength" : 192,
            "byteOffset" : 1545560
        },
        {
            "buffer" : 0,
            "byteLength" : 192,
            "byteOffset" : 1545752
        },
        {
            "buffer" : 0,
            "byteLength" : 128,
            "byteOffset" : 1545944
        },
        {
            "buffer" : 0,
            "byteLength" : 48,
            "byteOffset" : 1546072
        },
        {
            "buffer" : 0,
            "byteLength" : 7416,
            "byteOffset" : 1546120
        },
        {
            "buffer" : 0,
            "byteLength" : 7416,
            "byteOffset" : 1553536
        },
        {
            "buffer" : 0,
            "byteLength" : 4944,
            "byteOffset" : 1560952
        },
        {
            "buffer" : 0,
            "byteLength" : 1716,
            "byteOffset" : 1565896
        },
        {
            "buffer" : 0,
            "byteLength" : 11544,
            "byteOffset" : 1567612
        },
        {
            "buffer" : 0,
            "byteLength" : 11544,
            "byteOffset" : 1579156
        },
        {
            "buffer" : 0,
            "byteLength" : 7696,
            "byteOffset" : 1590700
        },
        {
            "buffer" : 0,
            "byteLength" : 2388,
            "byteOffset" : 1598396
        },
        {
            "buffer" : 0,
            "byteLength" : 11544,
            "byteOffset" : 1600784
        },
        {
            "buffer" : 0,
            "byteLength" : 11544,
            "byteOffset" : 1612328
        },
        {
            "buffer" : 0,
            "byteLength" : 7696,
            "byteOffset" : 1623872
        },
        {
            "buffer" : 0,
            "byteLength" : 7872,
            "byteOffset" : 1631568
        },
        {
            "buffer" : 0,
            "byteLength" : 7872,
            "byteOffset" : 1639440
        },
        {
            "buffer" : 0,
            "byteLength" : 5248,
            "byteOffset" : 1647312
        },
        {
            "buffer" : 0,
            "byteLength" : 1920,
            "byteOffset" : 1652560
        }
    ],
    "samplers" : [
        {
            "magFilter" : 9729,
            "minFilter" : 9987
        }
    ],
    "buffers" : [
        {
            "byteLength" : 1654480,
            "uri" : "scene.bin"
        }
    ]
}
