{"asset":{"version":"2.0","generator":"THREE.GLTFExporter"},"scenes":[{"nodes":[0],"name":"AuxScene"}],"scene":0,"nodes":[{"mesh":0}],"bufferViews":[{"buffer":0,"byteOffset":0,"byteLength":6588,"target":34962,"byteStride":12},{"buffer":0,"byteOffset":6588,"byteLength":6588,"target":34962,"byteStride":12}],"buffers":[{"byteLength":13176,"uri":"data:application/octet-stream;base64,"}],"accessors":[{"bufferView":0,"componentType":5126,"count":549,"max":[24.500001907348633,-0.31700000166893005,24.49999237060547],"min":[-24.700000762939453,-0.5170000195503235,-24.700010299682617],"type":"VEC3"},{"bufferView":1,"componentType":5126,"count":549,"max":[0.0931488499045372,1,0],"min":[-0.17127132415771484,0.9780675768852234,-0.18629832565784454],"type":"VEC3"}],"materials":[{"pbrMetallicRoughness":{"baseColorFactor":[0.5019607843137255,0.5019607843137255,0.5019607843137255,1],"metallicFactor":0,"roughnessFactor":1}}],"meshes":[{"primitives":[{"mode":4,"attributes":{"POSITION":0,"NORMAL":1},"material":0}]}]}