<svg width="647" height="647" viewBox="0 0 647 647" fill="none" xmlns="http://www.w3.org/2000/svg">
<path d="M363.214 199.077H267.357C266.202 199.077 265.093 199.539 264.276 200.361C263.459 201.183 263 202.299 263 203.462V229.769C263.013 237.234 264.599 244.611 267.654 251.413C270.709 258.216 275.164 264.288 280.723 269.231H267.357C266.202 269.231 265.093 269.693 264.276 270.515C263.459 271.337 263 272.453 263 273.615C263 274.778 263.459 275.894 264.276 276.716C265.093 277.538 266.202 278 267.357 278H363.214C364.37 278 365.478 277.538 366.295 276.716C367.112 275.894 367.571 274.778 367.571 273.615C367.571 272.453 367.112 271.337 366.295 270.515C365.478 269.693 364.37 269.231 363.214 269.231H349.849C356.522 263.279 361.582 255.718 364.554 247.258C370.088 246.915 375.284 244.462 379.083 240.397C382.882 236.333 384.998 230.964 385 225.385V221C385 215.186 382.705 209.609 378.619 205.498C374.534 201.387 368.992 199.077 363.214 199.077ZM376.286 225.385C376.284 228.221 375.371 230.981 373.682 233.253C371.994 235.525 369.621 237.187 366.918 237.99C367.35 235.271 367.568 232.523 367.571 229.769V208.602C370.119 209.509 372.325 211.188 373.886 213.408C375.446 215.628 376.285 218.281 376.286 221V225.385ZM310.929 185.923V168.385C310.929 167.222 311.388 166.106 312.205 165.284C313.022 164.462 314.13 164 315.286 164C316.441 164 317.55 164.462 318.367 165.284C319.184 166.106 319.643 167.222 319.643 168.385V185.923C319.643 187.086 319.184 188.201 318.367 189.023C317.55 189.846 316.441 190.308 315.286 190.308C314.13 190.308 313.022 189.846 312.205 189.023C311.388 188.201 310.929 187.086 310.929 185.923ZM328.357 185.923V168.385C328.357 167.222 328.816 166.106 329.633 165.284C330.45 164.462 331.559 164 332.714 164C333.87 164 334.978 164.462 335.795 165.284C336.612 166.106 337.071 167.222 337.071 168.385V185.923C337.071 187.086 336.612 188.201 335.795 189.023C334.978 189.846 333.87 190.308 332.714 190.308C331.559 190.308 330.45 189.846 329.633 189.023C328.816 188.201 328.357 187.086 328.357 185.923ZM293.5 185.923V168.385C293.5 167.222 293.959 166.106 294.776 165.284C295.593 164.462 296.702 164 297.857 164C299.013 164 300.121 164.462 300.938 165.284C301.755 166.106 302.214 167.222 302.214 168.385V185.923C302.214 187.086 301.755 188.201 300.938 189.023C300.121 189.846 299.013 190.308 297.857 190.308C296.702 190.308 295.593 189.846 294.776 189.023C293.959 188.201 293.5 187.086 293.5 185.923Z" fill="white"/>
<path fill-rule="evenodd" clip-rule="evenodd" d="M275.697 449C268.682 449 263 454.701 263 461.74V528.072C263 535.111 268.682 540.812 275.697 540.812H310.78L306.118 553.884H297.857C296.124 553.884 294.461 554.575 293.236 555.805C292.01 557.035 291.321 558.703 291.321 560.442C291.321 562.181 292.01 563.849 293.236 565.079C294.461 566.309 296.124 567 297.857 567H350.143C351.876 567 353.539 566.309 354.764 565.079C355.99 563.849 356.679 562.181 356.679 560.442C356.679 558.703 355.99 557.035 354.764 555.805C353.539 554.575 351.876 553.884 350.143 553.884H341.882L337.22 540.812H372.303C379.318 540.812 385 535.111 385 528.072V461.74C385 454.701 379.318 449 372.303 449H275.697ZM332.601 469.015C334.245 469.564 335.605 470.745 336.381 472.3C337.157 473.854 337.286 475.654 336.74 477.304L323.669 516.652C323.398 517.47 322.969 518.226 322.406 518.877C321.844 519.528 321.159 520.062 320.391 520.447C319.623 520.833 318.787 521.063 317.931 521.125C317.074 521.186 316.214 521.078 315.399 520.806C314.584 520.533 313.831 520.103 313.182 519.539C312.533 518.974 312.001 518.287 311.617 517.517C311.232 516.746 311.003 515.907 310.942 515.048C310.88 514.188 310.988 513.325 311.26 512.508L324.331 473.16C324.603 472.342 325.033 471.585 325.596 470.934C326.159 470.283 326.845 469.75 327.614 469.365C328.383 468.98 329.22 468.751 330.077 468.691C330.934 468.631 331.786 468.741 332.601 469.015ZM306.467 488.951C307.15 488.401 307.716 487.718 308.131 486.944C308.546 486.17 308.802 485.32 308.883 484.444C308.964 483.569 308.869 482.686 308.604 481.848C308.338 481.011 307.907 480.235 307.337 479.568C306.766 478.9 306.068 478.355 305.283 477.964C304.499 477.573 303.644 477.344 302.769 477.291C301.894 477.238 301.018 477.362 300.192 477.656C299.366 477.95 298.608 478.407 297.962 479.001L282.712 492.117C281.991 492.737 281.414 493.508 281.02 494.375C280.627 495.243 280.426 496.186 280.433 497.139C280.44 498.092 280.653 499.032 281.059 499.893C281.464 500.755 282.052 501.518 282.781 502.128L295.853 513.058C297.189 514.123 298.888 514.62 300.585 514.445C302.282 514.269 303.844 513.435 304.936 512.119C306.028 510.804 306.565 509.113 306.431 507.406C306.297 505.699 305.503 504.113 304.219 502.985L297.09 497.022L306.467 488.951ZM352.147 481.125C351.491 480.55 350.727 480.111 349.9 479.836C349.073 479.561 348.199 479.455 347.33 479.523C346.461 479.592 345.615 479.835 344.841 480.236C344.067 480.638 343.381 481.191 342.823 481.863C342.265 482.535 341.847 483.312 341.592 484.148C341.338 484.984 341.253 485.863 341.342 486.733C341.432 487.603 341.694 488.446 342.112 489.213C342.531 489.98 343.099 490.655 343.781 491.198L350.91 497.162L341.533 505.233C340.85 505.783 340.284 506.465 339.869 507.24C339.454 508.014 339.198 508.864 339.117 509.739C339.036 510.615 339.131 511.498 339.396 512.335C339.662 513.173 340.093 513.949 340.663 514.616C341.234 515.283 341.932 515.829 342.717 516.22C343.501 516.611 344.356 516.84 345.231 516.893C346.106 516.946 346.982 516.822 347.808 516.528C348.634 516.234 349.392 515.777 350.038 515.183L365.288 502.067C366.009 501.447 366.586 500.676 366.98 499.808C367.373 498.941 367.574 497.998 367.567 497.045C367.56 496.092 367.347 495.152 366.941 494.29C366.536 493.429 365.948 492.666 365.219 492.055L352.147 481.125Z" fill="white"/>
<path d="M197.136 94.2C197.861 94.2 198.224 96.0987 198.224 99.896C198.224 103.651 197.861 105.528 197.136 105.528H185.424V112.824H193.232C193.957 112.824 194.32 114.488 194.32 117.816C194.32 121.101 193.979 122.744 193.296 122.744H185.424V138.168C185.424 138.765 184.613 139.149 182.992 139.32C181.413 139.533 180.091 139.64 179.024 139.64L176.016 139.512C173.925 139.256 172.88 138.829 172.88 138.232V95.864C172.88 95.1813 173.008 94.7333 173.264 94.52C173.563 94.3067 173.989 94.2 174.544 94.2H197.136ZM214.78 138.616C214.78 138.957 212.817 139.128 208.892 139.128C205.009 139.128 203.068 138.979 203.068 138.68V107.256C203.068 106.957 205.009 106.808 208.892 106.808C212.817 106.808 214.78 106.936 214.78 107.192V138.616ZM214.78 103.416C214.78 103.715 212.817 103.864 208.892 103.864C205.009 103.864 203.068 103.736 203.068 103.48V94.264C203.068 93.8373 205.009 93.624 208.892 93.624C212.817 93.624 214.78 93.752 214.78 94.008V103.416ZM234.583 138.936C234.583 139.235 232.642 139.384 228.76 139.384C224.877 139.299 222.936 139.128 222.936 138.872V117.624H221.208C220.525 117.624 219.97 117.219 219.544 116.408C219.16 115.555 218.968 114.509 218.968 113.272C218.968 108.664 220.333 106.36 223.064 106.36C224.984 106.36 226.584 106.957 227.864 108.152C229.144 109.304 229.784 110.627 229.784 112.12C230.68 110.371 231.874 108.984 233.368 107.96C234.904 106.893 236.461 106.36 238.04 106.36C240.514 106.36 242.008 107 242.52 108.28C242.648 108.621 242.712 109.133 242.712 109.816C242.712 110.456 242.498 111.629 242.072 113.336C241.688 115.043 241.282 116.28 240.856 117.048C240.429 117.816 240.173 118.2 240.088 118.2C240.002 118.2 239.597 118.051 238.872 117.752C238.189 117.411 237.57 117.24 237.016 117.24C235.394 117.24 234.583 118.52 234.583 121.08V138.936ZM247.286 127.48C250.742 129.571 253.473 130.616 255.479 130.616C256.759 130.616 257.399 130.168 257.399 129.272C257.399 128.632 256.289 127.8 254.071 126.776C248.737 124.6 246.071 121.037 246.071 116.088C246.071 112.931 247.223 110.52 249.527 108.856C251.831 107.192 254.583 106.36 257.783 106.36C261.025 106.36 263.756 106.701 265.975 107.384C268.236 108.067 269.367 108.963 269.367 110.072C269.367 111.011 268.897 112.248 267.959 113.784C267.063 115.32 266.444 116.152 266.103 116.28C264.268 115.256 262.284 114.744 260.151 114.744C258.999 114.744 258.423 115.149 258.423 115.96C258.423 116.472 258.636 116.92 259.062 117.304C259.532 117.645 260.364 118.093 261.559 118.648C262.753 119.16 263.735 119.629 264.503 120.056C265.313 120.483 266.209 121.08 267.191 121.848C269.239 123.469 270.263 125.581 270.263 128.184C270.263 131.597 269.132 134.371 266.871 136.504C264.609 138.595 261.196 139.64 256.631 139.64C253.601 139.64 250.849 139.128 248.375 138.104C245.9 137.08 244.663 135.672 244.663 133.88C244.663 132.685 244.94 131.427 245.495 130.104C246.092 128.781 246.689 127.907 247.286 127.48ZM289.475 138.616C289.475 139.128 287.683 139.384 284.099 139.384C279.832 139.213 277.699 138.936 277.699 138.552V115.896H274.435C273.582 115.896 273.155 114.424 273.155 111.48C273.155 110.712 273.219 109.773 273.347 108.664C273.518 107.555 273.838 107 274.307 107H277.699V101.368C277.699 100.515 279.491 100.088 283.075 100.088C286.702 100.088 288.515 100.429 288.515 101.112V105.208L288.579 107H294.019C294.744 107 295.107 108.493 295.107 111.48C295.107 114.467 294.744 115.96 294.019 115.96H289.475V138.616ZM320.876 123.128C320.876 127.309 322.455 129.4 325.612 129.4C327.66 129.4 329.367 128.995 330.732 128.184C331.372 128.184 331.884 129.293 332.268 131.512C332.695 133.688 332.908 135.181 332.908 135.992C332.908 136.76 332.801 137.272 332.588 137.528C330.327 138.936 327.233 139.64 323.308 139.64C319.383 139.64 316.033 138.189 313.26 135.288C310.529 132.344 309.164 128.355 309.164 123.32C309.164 118.243 310.508 114.147 313.196 111.032C315.927 107.917 319.532 106.36 324.012 106.36C328.535 106.36 331.671 107.448 333.42 109.624C333.804 110.093 333.996 110.797 333.996 111.736C333.996 112.632 333.825 113.741 333.484 115.064C332.716 117.795 331.713 119.373 330.476 119.8C330.305 119.843 330.049 119.864 329.708 119.864C329.409 119.864 329.025 119.608 328.556 119.096C326.892 117.432 325.548 116.6 324.524 116.6C323.543 116.6 322.689 117.112 321.964 118.136C321.239 119.16 320.876 120.824 320.876 123.128ZM340.257 135.224C337.612 132.28 336.289 128.205 336.289 123C336.289 117.795 337.612 113.72 340.257 110.776C342.945 107.832 346.55 106.36 351.073 106.36C355.596 106.36 359.18 107.832 361.825 110.776C364.47 113.72 365.793 117.795 365.793 123C365.793 128.205 364.47 132.28 361.825 135.224C359.18 138.168 355.596 139.64 351.073 139.64C346.55 139.64 342.945 138.168 340.257 135.224ZM351.073 117.048C348.684 117.048 347.489 119.011 347.489 122.936C347.489 126.861 348.684 128.824 351.073 128.824C353.505 128.824 354.721 126.861 354.721 122.936C354.721 119.011 353.505 117.048 351.073 117.048ZM372.814 115.512H369.678C369.038 115.512 368.718 114.104 368.718 111.288C368.718 108.429 369.038 107 369.678 107H372.814V105.592C372.814 101.069 373.752 97.9547 375.63 96.248C377.55 94.4987 380.216 93.624 383.63 93.624C387.043 93.624 390.051 94.2427 392.654 95.48C392.995 95.608 393.166 96.0773 393.166 96.888C393.166 97.656 392.803 98.9147 392.078 100.664C391.352 102.413 390.734 103.416 390.222 103.672C388.771 102.776 387.278 102.328 385.742 102.328C384.078 102.328 383.246 103.437 383.246 105.656V107H388.558C389.326 107 389.71 108.365 389.71 111.096C389.71 114.083 389.219 115.576 388.238 115.576H384.142V138.232C384.142 138.744 382.243 139 378.446 139C374.691 139 372.814 138.744 372.814 138.232V115.512ZM396.814 115.512H393.678C393.038 115.512 392.718 114.104 392.718 111.288C392.718 108.429 393.038 107 393.678 107H396.814V105.592C396.814 101.069 397.752 97.9547 399.63 96.248C401.55 94.4987 404.216 93.624 407.63 93.624C411.043 93.624 414.051 94.2427 416.654 95.48C416.995 95.608 417.166 96.0773 417.166 96.888C417.166 97.656 416.803 98.9147 416.078 100.664C415.352 102.413 414.734 103.416 414.222 103.672C412.771 102.776 411.278 102.328 409.742 102.328C408.078 102.328 407.246 103.437 407.246 105.656V107H412.558C413.326 107 413.71 108.365 413.71 111.096C413.71 114.083 413.219 115.576 412.238 115.576H408.142V138.232C408.142 138.744 406.243 139 402.446 139C398.691 139 396.814 138.744 396.814 138.232V115.512ZM440.885 137.272C438.197 138.851 434.741 139.64 430.517 139.64C426.293 139.64 422.73 138.211 419.829 135.352C416.927 132.451 415.477 128.461 415.477 123.384C415.477 118.264 416.863 114.147 419.637 111.032C422.453 107.917 425.994 106.36 430.26 106.36C434.527 106.36 437.813 107.448 440.117 109.624C442.463 111.8 443.637 114.445 443.637 117.56C443.637 124.472 439.669 127.928 431.733 127.928H427.317C427.317 129.208 427.658 130.104 428.341 130.616C429.066 131.085 430.111 131.32 431.477 131.32C434.463 131.32 437.301 130.637 439.989 129.272C440.031 129.229 440.223 129.528 440.565 130.168C441.589 132.003 442.101 133.56 442.101 134.84C442.101 136.077 441.695 136.888 440.885 137.272ZM432.885 118.776C432.885 116.984 432.01 116.088 430.26 116.088C429.45 116.088 428.746 116.344 428.149 116.856C427.594 117.325 427.317 118.029 427.317 118.968V120.952H430.773C432.181 120.952 432.885 120.227 432.885 118.776ZM472.01 137.272C469.322 138.851 465.866 139.64 461.642 139.64C457.418 139.64 453.855 138.211 450.954 135.352C448.052 132.451 446.602 128.461 446.602 123.384C446.602 118.264 447.988 114.147 450.762 111.032C453.578 107.917 457.119 106.36 461.385 106.36C465.652 106.36 468.938 107.448 471.242 109.624C473.588 111.8 474.762 114.445 474.762 117.56C474.762 124.472 470.794 127.928 462.858 127.928H458.442C458.442 129.208 458.783 130.104 459.466 130.616C460.191 131.085 461.236 131.32 462.602 131.32C465.588 131.32 468.426 130.637 471.114 129.272C471.156 129.229 471.348 129.528 471.69 130.168C472.714 132.003 473.226 133.56 473.226 134.84C473.226 136.077 472.82 136.888 472.01 137.272ZM464.01 118.776C464.01 116.984 463.135 116.088 461.385 116.088C460.575 116.088 459.871 116.344 459.274 116.856C458.719 117.325 458.442 118.029 458.442 118.968V120.952H461.898C463.306 120.952 464.01 120.227 464.01 118.776Z" fill="white"/>
<path d="M131.912 395.768C130.717 393.635 130.12 391.907 130.12 390.584C130.12 389.219 130.483 388.344 131.208 387.96C133.64 386.893 136.968 386.36 141.192 386.36C145.459 386.36 148.467 387.363 150.216 389.368C151.965 391.331 152.84 394.253 152.84 398.136V408.248H155.016C155.741 408.248 156.296 408.675 156.68 409.528C157.107 410.381 157.32 411.555 157.32 413.048C157.32 414.541 156.936 416.013 156.168 417.464C155.443 418.915 154.44 419.64 153.16 419.64C150.856 419.64 149 419.021 147.592 417.784C146.952 417.272 146.461 416.653 146.12 415.928C144.157 418.403 141.107 419.64 136.968 419.64C133.853 419.64 131.229 418.531 129.096 416.312C126.963 414.093 125.896 411.469 125.896 408.44C125.896 401.485 130.056 398.008 138.376 398.008H141.896V397.368C141.896 396.259 141.704 395.555 141.32 395.256C140.979 394.915 140.147 394.744 138.824 394.744C137.203 394.744 134.899 395.085 131.912 395.768ZM137.032 407.544C137.032 408.483 137.288 409.208 137.8 409.72C138.312 410.189 138.952 410.424 139.72 410.424C140.531 410.424 141.256 410.104 141.896 409.464V404.536H140.104C138.056 404.536 137.032 405.539 137.032 407.544ZM174.319 418.616C174.319 418.915 172.783 419.064 169.711 419.064C165.444 418.936 163.311 418.701 163.311 418.36V397.624H161.647C160.537 397.624 159.812 396.685 159.471 394.808C159.385 394.253 159.343 393.699 159.343 393.144C159.343 391.821 159.599 390.499 160.111 389.176C160.879 387.299 162.073 386.36 163.695 386.36C165.316 386.36 166.767 386.744 168.047 387.512C169.327 388.28 170.18 389.048 170.607 389.816C173.295 387.512 176.495 386.36 180.207 386.36C183.919 386.36 186.607 387.363 188.271 389.368C189.935 391.373 190.767 394.659 190.767 399.224V418.424C190.767 418.936 188.932 419.192 185.263 419.192C181.636 419.192 179.823 418.936 179.823 418.424V399.928C179.823 397.795 179.076 396.728 177.583 396.728C177.156 396.728 176.559 396.92 175.791 397.304C175.023 397.645 174.532 397.901 174.319 398.072V418.616ZM212.385 374.584C212.385 373.944 214.07 373.624 217.441 373.624C218.593 373.624 219.915 373.709 221.409 373.88C222.945 374.008 223.713 374.2 223.713 374.456V408.184H225.953C227.019 408.184 227.723 409.144 228.065 411.064C228.15 411.619 228.193 412.387 228.193 413.368C228.193 414.307 227.894 415.459 227.297 416.824C226.443 418.701 225.078 419.64 223.201 419.64C221.793 419.64 220.534 419.363 219.425 418.808C218.358 418.253 217.633 417.677 217.249 417.08L216.673 416.248C214.326 418.509 211.382 419.64 207.841 419.64C204.299 419.64 201.27 418.168 198.753 415.224C196.235 412.28 194.977 408.184 194.977 402.936C194.977 397.645 196.299 393.571 198.945 390.712C201.59 387.811 204.897 386.36 208.865 386.36C210.017 386.36 211.19 386.488 212.385 386.744V374.584ZM210.273 396.6C207.883 396.6 206.689 398.755 206.689 403.064C206.689 405.24 207.03 406.819 207.713 407.8C208.395 408.739 209.142 409.208 209.953 409.208C210.806 409.208 211.617 408.845 212.385 408.12V397.24C211.659 396.813 210.955 396.6 210.273 396.6ZM259.163 418.616C259.163 419.128 257.371 419.384 253.787 419.384C249.52 419.213 247.387 418.936 247.387 418.552V395.896H244.123C243.269 395.896 242.843 394.424 242.843 391.48C242.843 390.712 242.907 389.773 243.035 388.664C243.205 387.555 243.525 387 243.995 387H247.387V381.368C247.387 380.515 249.179 380.088 252.763 380.088C256.389 380.088 258.203 380.429 258.203 381.112V385.208L258.267 387H263.707C264.432 387 264.795 388.493 264.795 391.48C264.795 394.467 264.432 395.96 263.707 395.96H259.163V418.616ZM278.693 418.552C278.693 418.936 276.901 419.128 273.317 419.128C269.776 419.128 268.005 418.829 268.005 418.232V374.392C268.005 374.093 268.666 373.88 269.989 373.752C271.312 373.624 272.421 373.56 273.317 373.56C276.901 373.56 278.693 373.944 278.693 374.712V387.512C281.082 386.787 282.896 386.424 284.133 386.424C287.376 386.424 289.936 387.299 291.813 389.048C293.69 390.755 294.629 393.955 294.629 398.648V418.488C294.629 418.872 292.965 419.064 289.637 419.064C285.882 418.936 284.005 418.723 284.005 418.424V399.608C284.005 397.517 283.322 396.472 281.957 396.472C281.018 396.472 279.93 396.92 278.693 397.816V418.552ZM324.26 417.272C321.572 418.851 318.116 419.64 313.892 419.64C309.668 419.64 306.105 418.211 303.204 415.352C300.302 412.451 298.852 408.461 298.852 403.384C298.852 398.264 300.238 394.147 303.012 391.032C305.828 387.917 309.369 386.36 313.635 386.36C317.902 386.36 321.188 387.448 323.492 389.624C325.838 391.8 327.012 394.445 327.012 397.56C327.012 404.472 323.044 407.928 315.108 407.928H310.692C310.692 409.208 311.033 410.104 311.716 410.616C312.441 411.085 313.486 411.32 314.852 411.32C317.838 411.32 320.676 410.637 323.364 409.272C323.406 409.229 323.598 409.528 323.94 410.168C324.964 412.003 325.476 413.56 325.476 414.84C325.476 416.077 325.07 416.888 324.26 417.272ZM316.26 398.776C316.26 396.984 315.385 396.088 313.635 396.088C312.825 396.088 312.121 396.344 311.524 396.856C310.969 397.325 310.692 398.029 310.692 398.968V400.952H314.148C315.556 400.952 316.26 400.227 316.26 398.776ZM344.569 418.616C344.569 418.915 343.033 419.064 339.961 419.064C335.694 418.936 333.561 418.701 333.561 418.36V397.624H331.897C330.787 397.624 330.062 396.685 329.721 394.808C329.635 394.253 329.593 393.699 329.593 393.144C329.593 391.821 329.849 390.499 330.361 389.176C331.129 387.299 332.323 386.36 333.945 386.36C335.566 386.36 337.017 386.744 338.297 387.512C339.577 388.28 340.43 389.048 340.857 389.816C343.545 387.512 346.745 386.36 350.457 386.36C354.169 386.36 356.857 387.363 358.521 389.368C360.185 391.373 361.017 394.659 361.017 399.224V418.424C361.017 418.936 359.182 419.192 355.513 419.192C351.886 419.192 350.073 418.936 350.073 418.424V399.928C350.073 397.795 349.326 396.728 347.833 396.728C347.406 396.728 346.809 396.92 346.041 397.304C345.273 397.645 344.782 397.901 344.569 398.072V418.616ZM389.001 403.128C389.001 407.309 390.58 409.4 393.737 409.4C395.785 409.4 397.492 408.995 398.857 408.184C399.497 408.184 400.009 409.293 400.393 411.512C400.82 413.688 401.033 415.181 401.033 415.992C401.033 416.76 400.926 417.272 400.713 417.528C398.452 418.936 395.358 419.64 391.433 419.64C387.508 419.64 384.158 418.189 381.385 415.288C378.654 412.344 377.289 408.355 377.289 403.32C377.289 398.243 378.633 394.147 381.321 391.032C384.052 387.917 387.657 386.36 392.137 386.36C396.66 386.36 399.796 387.448 401.545 389.624C401.929 390.093 402.121 390.797 402.121 391.736C402.121 392.632 401.95 393.741 401.609 395.064C400.841 397.795 399.838 399.373 398.601 399.8C398.43 399.843 398.174 399.864 397.833 399.864C397.534 399.864 397.15 399.608 396.681 399.096C395.017 397.432 393.673 396.6 392.649 396.6C391.668 396.6 390.814 397.112 390.089 398.136C389.364 399.16 389.001 400.824 389.001 403.128ZM408.382 415.224C405.737 412.28 404.414 408.205 404.414 403C404.414 397.795 405.737 393.72 408.382 390.776C411.07 387.832 414.675 386.36 419.198 386.36C423.721 386.36 427.305 387.832 429.95 390.776C432.595 393.72 433.918 397.795 433.918 403C433.918 408.205 432.595 412.28 429.95 415.224C427.305 418.168 423.721 419.64 419.198 419.64C414.675 419.64 411.07 418.168 408.382 415.224ZM419.198 397.048C416.809 397.048 415.614 399.011 415.614 402.936C415.614 406.861 416.809 408.824 419.198 408.824C421.63 408.824 422.846 406.861 422.846 402.936C422.846 399.011 421.63 397.048 419.198 397.048ZM454.635 374.584C454.635 373.944 456.32 373.624 459.691 373.624C460.843 373.624 462.165 373.709 463.659 373.88C465.195 374.008 465.963 374.2 465.963 374.456V408.184H468.203C469.269 408.184 469.973 409.144 470.315 411.064C470.4 411.619 470.443 412.387 470.443 413.368C470.443 414.307 470.144 415.459 469.547 416.824C468.693 418.701 467.328 419.64 465.451 419.64C464.043 419.64 462.784 419.363 461.675 418.808C460.608 418.253 459.883 417.677 459.499 417.08L458.923 416.248C456.576 418.509 453.632 419.64 450.091 419.64C446.549 419.64 443.52 418.168 441.003 415.224C438.485 412.28 437.227 408.184 437.227 402.936C437.227 397.645 438.549 393.571 441.195 390.712C443.84 387.811 447.147 386.36 451.115 386.36C452.267 386.36 453.44 386.488 454.635 386.744V374.584ZM452.523 396.6C450.133 396.6 448.939 398.755 448.939 403.064C448.939 405.24 449.28 406.819 449.963 407.8C450.645 408.739 451.392 409.208 452.203 409.208C453.056 409.208 453.867 408.845 454.635 408.12V397.24C453.909 396.813 453.205 396.6 452.523 396.6ZM498.822 417.272C496.134 418.851 492.678 419.64 488.454 419.64C484.23 419.64 480.667 418.211 477.766 415.352C474.865 412.451 473.414 408.461 473.414 403.384C473.414 398.264 474.801 394.147 477.574 391.032C480.39 387.917 483.931 386.36 488.198 386.36C492.465 386.36 495.75 387.448 498.054 389.624C500.401 391.8 501.574 394.445 501.574 397.56C501.574 404.472 497.606 407.928 489.67 407.928H485.254C485.254 409.208 485.595 410.104 486.278 410.616C487.003 411.085 488.049 411.32 489.414 411.32C492.401 411.32 495.238 410.637 497.926 409.272C497.969 409.229 498.161 409.528 498.502 410.168C499.526 412.003 500.038 413.56 500.038 414.84C500.038 416.077 499.633 416.888 498.822 417.272ZM490.822 398.776C490.822 396.984 489.947 396.088 488.198 396.088C487.387 396.088 486.683 396.344 486.086 396.856C485.531 397.325 485.254 398.029 485.254 398.968V400.952H488.71C490.118 400.952 490.822 400.227 490.822 398.776ZM516.315 405.56C516.315 405.816 514.779 405.944 511.707 405.944C508.678 405.944 507.163 405.837 507.163 405.624L505.883 374.072C505.883 373.731 507.824 373.56 511.707 373.56C515.632 373.56 517.595 373.709 517.595 374.008L516.315 405.56ZM505.755 409.4C505.755 409.101 507.718 408.952 511.643 408.952C515.611 408.952 517.595 409.08 517.595 409.336V418.552C517.595 418.979 515.611 419.192 511.643 419.192C507.718 419.192 505.755 419.064 505.755 418.808V409.4Z" fill="white"/>
</svg>
