<svg width="647" height="647" viewBox="0 0 647 647" fill="none" xmlns="http://www.w3.org/2000/svg">
<rect x="72.5" y="79.5" width="345" height="496" rx="19.5" stroke="white" stroke-width="5"/>
<path d="M168 167.064C164.203 167.064 162.304 166.637 162.304 165.784L160.96 140.12L153.152 166.104C152.981 166.616 151.531 166.872 148.8 166.872C146.069 166.872 144.661 166.637 144.576 166.168L136.512 139.864L135.616 165.4C135.573 166.04 134.763 166.488 133.184 166.744C131.605 166.957 130.283 167.064 129.216 167.064C128.192 167.064 127.189 167 126.208 166.872C124.16 166.573 123.157 166.04 123.2 165.272L124.672 123.672C124.672 122.648 127.275 122.136 132.48 122.136C134.016 122.136 135.893 122.264 138.112 122.52C140.331 122.733 141.568 123.181 141.824 123.864L148.992 144.024L155.264 123.8C155.648 122.691 158.592 122.136 164.096 122.136C165.675 122.136 167.552 122.264 169.728 122.52C171.947 122.733 173.056 123.139 173.056 123.736L174.912 165.72C174.912 166.189 174.08 166.531 172.416 166.744C170.752 166.957 169.28 167.064 168 167.064ZM211.343 167.128C207.631 167.128 205.625 166.531 205.327 165.336L203.215 157.08H193.039L191.183 165.016C190.927 166.339 188.879 167 185.039 167C182.991 167 181.476 166.893 180.495 166.68C179.513 166.424 179.023 166.232 179.023 166.104L190.351 122.776C190.351 122.435 193.273 122.264 199.119 122.264C204.964 122.264 207.887 122.435 207.887 122.776L218.959 166.168C218.959 166.467 217.977 166.701 216.015 166.872C214.052 167.043 212.495 167.128 211.343 167.128ZM194.639 148.952H201.359L198.479 135.704H198.095L194.639 148.952ZM258.272 165.592C258.272 166.488 256.267 166.936 252.256 166.936C248.245 166.936 246.069 166.616 245.728 165.976L235.04 146.008V165.912C235.04 166.68 233.056 167.064 229.088 167.064C225.163 167.064 223.2 166.68 223.2 165.912V123.096C223.2 122.456 224.885 122.136 228.256 122.136C229.579 122.136 231.115 122.264 232.864 122.52C234.656 122.733 235.744 123.16 236.128 123.8L246.368 143.512V123.416C246.368 122.605 248.352 122.2 252.32 122.2C256.288 122.2 258.272 122.605 258.272 123.416V165.592ZM274.94 153.56C274.94 153.816 273.404 153.944 270.332 153.944C267.303 153.944 265.788 153.837 265.788 153.624L264.508 122.072C264.508 121.731 266.449 121.56 270.332 121.56C274.257 121.56 276.22 121.709 276.22 122.008L274.94 153.56ZM264.38 157.4C264.38 157.101 266.343 156.952 270.268 156.952C274.236 156.952 276.22 157.08 276.22 157.336V166.552C276.22 166.979 274.236 167.192 270.268 167.192C266.343 167.192 264.38 167.064 264.38 166.808V157.4ZM141.504 267.624C144.619 267.624 147.349 268.072 149.696 268.968C152.085 269.821 153.28 270.995 153.28 272.488C153.28 273.981 152.704 275.837 151.552 278.056C150.443 280.232 149.504 281.32 148.736 281.32C148.523 281.32 148.267 281.213 147.968 281C147.712 280.744 147.072 280.488 146.048 280.232C145.067 279.933 144.213 279.784 143.488 279.784C141.013 279.784 139.008 280.659 137.472 282.408C135.979 284.157 135.232 286.845 135.232 290.472C135.232 294.056 136 296.723 137.536 298.472C139.115 300.221 141.099 301.096 143.488 301.096C144.469 301.096 145.557 300.968 146.752 300.712C147.989 300.413 148.864 300.008 149.376 299.496C149.461 299.411 149.632 299.368 149.888 299.368C150.144 299.368 150.613 299.859 151.296 300.84C152.021 301.779 152.683 303.037 153.28 304.616C153.877 306.152 154.176 307.347 154.176 308.2C154.176 309.864 152.896 311.187 150.336 312.168C147.776 313.149 144.747 313.64 141.248 313.64C135.616 313.64 130.987 311.656 127.36 307.688C123.733 303.72 121.92 298.131 121.92 290.92C121.92 283.667 123.776 277.971 127.488 273.832C131.243 269.693 135.915 267.624 141.504 267.624ZM160.739 297.384C161.55 298.024 162.936 298.899 164.899 300.008C166.904 301.117 168.803 301.672 170.595 301.672C172.43 301.672 173.347 300.968 173.347 299.56C173.347 298.92 173.091 298.365 172.579 297.896C172.067 297.384 171.128 296.808 169.763 296.168C168.398 295.528 167.374 295.037 166.691 294.696C166.008 294.312 165.091 293.715 163.939 292.904C162.83 292.051 161.976 291.176 161.379 290.28C159.672 287.848 158.819 284.755 158.819 281C158.819 277.245 160.206 274.088 162.979 271.528C165.795 268.925 169.464 267.624 173.987 267.624C177.059 267.624 179.896 267.965 182.499 268.648C185.102 269.288 186.446 270.141 186.531 271.208C186.531 271.336 186.531 271.464 186.531 271.592C186.531 273.085 186.062 274.984 185.123 277.288C184.184 279.549 183.523 280.808 183.139 281.064C180.408 279.656 177.955 278.952 175.779 278.952C173.646 278.952 172.579 279.72 172.579 281.256C172.579 282.195 173.368 283.027 174.947 283.752C175.288 283.923 175.779 284.157 176.419 284.456C177.059 284.755 177.784 285.117 178.595 285.544C179.448 285.928 180.344 286.44 181.283 287.08C182.264 287.677 183.31 288.488 184.419 289.512C186.68 291.645 187.811 294.461 187.811 297.96C187.811 302.525 186.552 306.259 184.035 309.16C181.518 312.061 177.635 313.555 172.387 313.64C169.827 313.64 167.502 313.427 165.411 313C163.363 312.573 161.571 311.741 160.035 310.504C158.499 309.267 157.731 307.773 157.731 306.024C157.731 304.275 158.051 302.547 158.691 300.84C159.331 299.091 160.014 297.939 160.739 297.384ZM194.739 297.384C195.55 298.024 196.936 298.899 198.899 300.008C200.904 301.117 202.803 301.672 204.595 301.672C206.43 301.672 207.347 300.968 207.347 299.56C207.347 298.92 207.091 298.365 206.579 297.896C206.067 297.384 205.128 296.808 203.763 296.168C202.398 295.528 201.374 295.037 200.691 294.696C200.008 294.312 199.091 293.715 197.939 292.904C196.83 292.051 195.976 291.176 195.379 290.28C193.672 287.848 192.819 284.755 192.819 281C192.819 277.245 194.206 274.088 196.979 271.528C199.795 268.925 203.464 267.624 207.987 267.624C211.059 267.624 213.896 267.965 216.499 268.648C219.102 269.288 220.446 270.141 220.531 271.208C220.531 271.336 220.531 271.464 220.531 271.592C220.531 273.085 220.062 274.984 219.123 277.288C218.184 279.549 217.523 280.808 217.139 281.064C214.408 279.656 211.955 278.952 209.779 278.952C207.646 278.952 206.579 279.72 206.579 281.256C206.579 282.195 207.368 283.027 208.947 283.752C209.288 283.923 209.779 284.157 210.419 284.456C211.059 284.755 211.784 285.117 212.595 285.544C213.448 285.928 214.344 286.44 215.283 287.08C216.264 287.677 217.31 288.488 218.419 289.512C220.68 291.645 221.811 294.461 221.811 297.96C221.811 302.525 220.552 306.259 218.035 309.16C215.518 312.061 211.635 313.555 206.387 313.64C203.827 313.64 201.502 313.427 199.411 313C197.363 312.573 195.571 311.741 194.035 310.504C192.499 309.267 191.731 307.773 191.731 306.024C191.731 304.275 192.051 302.547 192.691 300.84C193.331 299.091 194.014 297.939 194.739 297.384ZM243.362 301.992V279.208H238.818C238.092 279.208 237.58 278.291 237.282 276.456C237.154 275.56 237.09 274.643 237.09 273.704C237.09 272.765 237.154 271.848 237.282 270.952C237.58 269.117 238.092 268.2 238.818 268.2H260.322C261.047 268.2 261.538 269.117 261.794 270.952C261.964 271.848 262.05 272.765 262.05 273.704C262.05 274.643 261.964 275.56 261.794 276.456C261.538 278.291 261.047 279.208 260.322 279.208H256.034V301.992H260.514C261.239 301.992 261.751 302.909 262.05 304.744C262.22 305.64 262.306 306.557 262.306 307.496C262.306 308.435 262.22 309.352 262.05 310.248C261.751 312.083 261.239 313 260.514 313H238.946C238.22 313 237.73 312.083 237.474 310.248C237.303 309.352 237.218 308.435 237.218 307.496C237.218 306.557 237.303 305.64 237.474 304.744C237.73 302.909 238.22 301.992 238.946 301.992H243.362ZM268.239 297.384C269.05 298.024 270.436 298.899 272.399 300.008C274.404 301.117 276.303 301.672 278.095 301.672C279.93 301.672 280.847 300.968 280.847 299.56C280.847 298.92 280.591 298.365 280.079 297.896C279.567 297.384 278.628 296.808 277.263 296.168C275.898 295.528 274.874 295.037 274.191 294.696C273.508 294.312 272.591 293.715 271.439 292.904C270.33 292.051 269.476 291.176 268.879 290.28C267.172 287.848 266.319 284.755 266.319 281C266.319 277.245 267.706 274.088 270.479 271.528C273.295 268.925 276.964 267.624 281.487 267.624C284.559 267.624 287.396 267.965 289.999 268.648C292.602 269.288 293.946 270.141 294.031 271.208C294.031 271.336 294.031 271.464 294.031 271.592C294.031 273.085 293.562 274.984 292.623 277.288C291.684 279.549 291.023 280.808 290.639 281.064C287.908 279.656 285.455 278.952 283.279 278.952C281.146 278.952 280.079 279.72 280.079 281.256C280.079 282.195 280.868 283.027 282.447 283.752C282.788 283.923 283.279 284.157 283.919 284.456C284.559 284.755 285.284 285.117 286.095 285.544C286.948 285.928 287.844 286.44 288.783 287.08C289.764 287.677 290.81 288.488 291.919 289.512C294.18 291.645 295.311 294.461 295.311 297.96C295.311 302.525 294.052 306.259 291.535 309.16C289.018 312.061 285.135 313.555 279.887 313.64C277.327 313.64 275.002 313.427 272.911 313C270.863 312.573 269.071 311.741 267.535 310.504C265.999 309.267 265.231 307.773 265.231 306.024C265.231 304.275 265.551 302.547 266.191 300.84C266.831 299.091 267.514 297.939 268.239 297.384ZM342.718 313.128C339.006 313.128 337 312.531 336.702 311.336L334.59 303.08H324.414L322.558 311.016C322.302 312.339 320.254 313 316.414 313C314.366 313 312.851 312.893 311.87 312.68C310.888 312.424 310.398 312.232 310.398 312.104L321.726 268.776C321.726 268.435 324.648 268.264 330.494 268.264C336.339 268.264 339.262 268.435 339.262 268.776L350.334 312.168C350.334 312.467 349.352 312.701 347.39 312.872C345.427 313.043 343.87 313.128 342.718 313.128ZM326.014 294.952H332.734L329.854 281.704H329.47L326.014 294.952ZM350.469 268.84C350.341 268.371 352.496 268.136 356.933 268.136C361.84 268.136 364.357 268.541 364.485 269.352L367.621 296.296L374.405 269.032C374.618 268.392 376.282 268.072 379.397 268.072C382.512 268.072 384.176 268.371 384.389 268.968L391.045 296.424L394.757 269.224C394.842 268.755 395.824 268.435 397.701 268.264C399.578 268.093 401.093 268.008 402.245 268.008C406.725 268.008 408.901 268.307 408.773 268.904L401.029 311.336C400.858 311.976 399.642 312.445 397.381 312.744C395.12 313.043 393.285 313.192 391.877 313.192C386.586 313.192 383.813 312.595 383.557 311.4L379.205 293.8L374.469 311.336C374.298 312.104 372.805 312.659 369.989 313C368.538 313.128 367.088 313.192 365.637 313.192L361.541 313C358.725 312.701 357.232 312.168 357.061 311.4L350.469 268.84ZM434.125 285.992C434.936 285.992 435.341 287.485 435.341 290.472C435.341 291.368 435.234 292.435 435.021 293.672C434.85 294.867 434.509 295.464 433.997 295.464H425.869V301.864H437.645C438.37 301.864 438.861 302.803 439.117 304.68C439.245 305.491 439.309 306.365 439.309 307.304C439.309 308.2 439.181 309.373 438.925 310.824C438.669 312.275 438.242 313 437.645 313H415.757C414.136 313 413.325 312.339 413.325 311.016V269.864C413.325 268.755 413.816 268.2 414.797 268.2H437.709C438.605 268.2 439.053 270.099 439.053 273.896C439.053 277.651 438.605 279.528 437.709 279.528H425.869V285.992H434.125ZM446.552 297.384C447.362 298.024 448.749 298.899 450.712 300.008C452.717 301.117 454.616 301.672 456.408 301.672C458.242 301.672 459.16 300.968 459.16 299.56C459.16 298.92 458.904 298.365 458.392 297.896C457.88 297.384 456.941 296.808 455.576 296.168C454.21 295.528 453.186 295.037 452.504 294.696C451.821 294.312 450.904 293.715 449.752 292.904C448.642 292.051 447.789 291.176 447.192 290.28C445.485 287.848 444.632 284.755 444.632 281C444.632 277.245 446.018 274.088 448.792 271.528C451.608 268.925 455.277 267.624 459.8 267.624C462.872 267.624 465.709 267.965 468.312 268.648C470.914 269.288 472.258 270.141 472.344 271.208C472.344 271.336 472.344 271.464 472.344 271.592C472.344 273.085 471.874 274.984 470.936 277.288C469.997 279.549 469.336 280.808 468.952 281.064C466.221 279.656 463.768 278.952 461.592 278.952C459.458 278.952 458.392 279.72 458.392 281.256C458.392 282.195 459.181 283.027 460.76 283.752C461.101 283.923 461.592 284.157 462.232 284.456C462.872 284.755 463.597 285.117 464.408 285.544C465.261 285.928 466.157 286.44 467.096 287.08C468.077 287.677 469.122 288.488 470.232 289.512C472.493 291.645 473.624 294.461 473.624 297.96C473.624 302.525 472.365 306.259 469.848 309.16C467.33 312.061 463.448 313.555 458.2 313.64C455.64 313.64 453.314 313.427 451.224 313C449.176 312.573 447.384 311.741 445.848 310.504C444.312 309.267 443.544 307.773 443.544 306.024C443.544 304.275 443.864 302.547 444.504 300.84C445.144 299.091 445.826 297.939 446.552 297.384ZM497.896 313.64C491.922 313.64 487.037 311.677 483.24 307.752C479.485 303.827 477.608 298.109 477.608 290.6C477.608 283.048 479.506 277.331 483.304 273.448C487.144 269.565 492.072 267.624 498.088 267.624C504.146 267.624 509.032 269.544 512.744 273.384C516.456 277.181 518.312 282.963 518.312 290.728C518.312 298.451 516.413 304.211 512.616 308.008C508.818 311.763 503.912 313.64 497.896 313.64ZM497.96 279.912C495.912 279.912 494.184 280.851 492.776 282.728C491.41 284.605 490.728 287.251 490.728 290.664C490.728 294.035 491.389 296.637 492.712 298.472C494.034 300.264 495.762 301.16 497.896 301.16C500.072 301.16 501.821 300.243 503.144 298.408C504.509 296.573 505.192 293.949 505.192 290.536C505.192 287.123 504.488 284.499 503.08 282.664C501.714 280.829 500.008 279.912 497.96 279.912ZM568.25 313.064C564.453 313.064 562.554 312.637 562.554 311.784L561.21 286.12L553.402 312.104C553.231 312.616 551.781 312.872 549.05 312.872C546.319 312.872 544.911 312.637 544.826 312.168L536.762 285.864L535.866 311.4C535.823 312.04 535.013 312.488 533.434 312.744C531.855 312.957 530.533 313.064 529.466 313.064C528.442 313.064 527.439 313 526.458 312.872C524.41 312.573 523.407 312.04 523.45 311.272L524.922 269.672C524.922 268.648 527.525 268.136 532.73 268.136C534.266 268.136 536.143 268.264 538.362 268.52C540.581 268.733 541.818 269.181 542.074 269.864L549.242 290.024L555.514 269.8C555.898 268.691 558.842 268.136 564.346 268.136C565.925 268.136 567.802 268.264 569.978 268.52C572.197 268.733 573.306 269.139 573.306 269.736L575.162 311.72C575.162 312.189 574.33 312.531 572.666 312.744C571.002 312.957 569.53 313.064 568.25 313.064ZM602.313 285.992C603.123 285.992 603.529 287.485 603.529 290.472C603.529 291.368 603.422 292.435 603.209 293.672C603.038 294.867 602.697 295.464 602.185 295.464H594.057V301.864H605.833C606.558 301.864 607.049 302.803 607.305 304.68C607.433 305.491 607.497 306.365 607.497 307.304C607.497 308.2 607.369 309.373 607.113 310.824C606.857 312.275 606.43 313 605.833 313H583.945C582.323 313 581.513 312.339 581.513 311.016V269.864C581.513 268.755 582.003 268.2 582.985 268.2H605.897C606.793 268.2 607.241 270.099 607.241 273.896C607.241 277.651 606.793 279.528 605.897 279.528H594.057V285.992H602.313ZM623.315 299.56C623.315 299.816 621.779 299.944 618.707 299.944C615.678 299.944 614.163 299.837 614.163 299.624L612.883 268.072C612.883 267.731 614.824 267.56 618.707 267.56C622.632 267.56 624.595 267.709 624.595 268.008L623.315 299.56ZM612.755 303.4C612.755 303.101 614.718 302.952 618.643 302.952C622.611 302.952 624.595 303.08 624.595 303.336V312.552C624.595 312.979 622.611 313.192 618.643 313.192C614.718 313.192 612.755 313.064 612.755 312.808V303.4Z" fill="white"/>
</svg>
