<svg width="1108" height="1108" viewBox="0 0 1108 1108" fill="none" xmlns="http://www.w3.org/2000/svg">
<path d="M554.547 521.457C591.494 521.457 621.446 491.506 621.446 454.558C621.446 417.611 591.494 387.66 554.547 387.66C517.6 387.66 487.648 417.611 487.648 454.558C487.648 491.506 517.6 521.457 554.547 521.457Z" fill="#00D8FF"/>
<path d="M554.548 318.55C644.35 318.55 727.786 331.439 790.683 353.083C866.469 379.17 913.073 418.721 913.073 454.536C913.073 491.855 863.684 533.882 782.304 560.832C720.778 581.215 639.796 591.871 554.548 591.871C467.132 591.871 384.382 581.878 322.148 560.611C243.422 533.705 196 491.147 196 454.536C196 419.009 240.503 379.767 315.228 353.724C378.369 331.726 463.861 318.55 554.548 318.55Z" stroke="#00D8FF" stroke-width="32.0004" stroke-miterlimit="10"/>
<path d="M436.159 386.952C481.017 309.154 533.877 243.317 584.062 199.653C644.527 147.036 702.074 126.432 733.092 144.317C765.414 162.954 777.153 226.736 759.843 310.724C746.755 374.218 715.538 449.673 672.936 523.535C629.273 599.255 579.265 665.955 529.765 709.243C467.133 764.004 406.557 783.813 374.854 765.53C344.08 747.777 332.318 689.633 347.064 611.879C359.533 546.13 390.838 465.502 436.159 386.952Z" stroke="#00D8FF" stroke-width="32.0004" stroke-miterlimit="10"/>
<path d="M436.269 523.69C391.28 445.959 360.638 367.298 347.86 302.013C332.472 223.353 343.35 163.197 374.345 145.268C406.645 126.564 467.751 148.252 531.864 205.18C580.347 248.225 630.112 312.957 672.825 386.753C716.621 462.407 749.451 539.033 762.208 603.522C778.369 685.145 765.281 747.512 733.6 765.839C702.848 783.636 646.605 764.8 586.604 713.178C535.932 669.559 481.701 602.174 436.269 523.69Z" stroke="#00D8FF" stroke-width="32.0004" stroke-miterlimit="10"/>
<path d="M120.1 945.645C120.1 946.712 116.933 947.245 110.6 947.245C104.2 947.245 101 946.745 101 945.745V880.545C101 878.212 102.233 877.045 104.7 877.045H123.8C141.333 877.045 150.1 883.878 150.1 897.545C150.1 901.678 149.3 905.445 147.7 908.845C146.1 912.178 143.833 914.845 140.9 916.845L153.5 937.845C152.967 939.445 151.233 941.278 148.3 943.345C144.3 946.212 141 947.645 138.4 947.645C135.8 947.645 133.867 946.712 132.6 944.845L123.2 922.945H120.1V945.645ZM120.1 894.745V909.745H120.6C126.933 909.745 130.1 907.112 130.1 901.845C130.1 899.445 129.467 897.678 128.2 896.545C127 895.345 125 894.745 122.2 894.745H120.1ZM192.484 904.845C193.751 904.845 194.384 907.178 194.384 911.845C194.384 913.245 194.218 914.912 193.884 916.845C193.618 918.712 193.084 919.645 192.284 919.645H179.584V929.645H197.984C199.118 929.645 199.884 931.112 200.284 934.045C200.484 935.312 200.584 936.678 200.584 938.145C200.584 939.545 200.384 941.378 199.984 943.645C199.584 945.912 198.918 947.045 197.984 947.045H163.784C161.251 947.045 159.984 946.012 159.984 943.945V879.645C159.984 877.912 160.751 877.045 162.284 877.045H198.084C199.484 877.045 200.184 880.012 200.184 885.945C200.184 891.812 199.484 894.745 198.084 894.745H179.584V904.845H192.484ZM256.301 947.245C250.501 947.245 247.367 946.312 246.901 944.445L243.601 931.545H227.701L224.801 943.945C224.401 946.012 221.201 947.045 215.201 947.045C212.001 947.045 209.634 946.878 208.101 946.545C206.567 946.145 205.801 945.845 205.801 945.645L223.501 877.945C223.501 877.412 228.067 877.145 237.201 877.145C246.334 877.145 250.901 877.412 250.901 877.945L268.201 945.745C268.201 946.212 266.667 946.578 263.601 946.845C260.534 947.112 258.101 947.245 256.301 947.245ZM230.201 918.845H240.701L236.201 898.145H235.601L230.201 918.845ZM303.428 876.145C308.295 876.145 312.561 876.845 316.228 878.245C319.961 879.578 321.828 881.412 321.828 883.745C321.828 886.078 320.928 888.978 319.128 892.445C317.395 895.845 315.928 897.545 314.728 897.545C314.395 897.545 313.995 897.378 313.528 897.045C313.128 896.645 312.128 896.245 310.528 895.845C308.995 895.378 307.661 895.145 306.528 895.145C302.661 895.145 299.528 896.512 297.128 899.245C294.795 901.978 293.628 906.178 293.628 911.845C293.628 917.445 294.828 921.612 297.228 924.345C299.695 927.078 302.795 928.445 306.528 928.445C308.061 928.445 309.761 928.245 311.628 927.845C313.561 927.378 314.928 926.745 315.728 925.945C315.861 925.812 316.128 925.745 316.528 925.745C316.928 925.745 317.661 926.512 318.728 928.045C319.861 929.512 320.895 931.478 321.828 933.945C322.761 936.345 323.228 938.212 323.228 939.545C323.228 942.145 321.228 944.212 317.228 945.745C313.228 947.278 308.495 948.045 303.028 948.045C294.228 948.045 286.995 944.945 281.328 938.745C275.661 932.545 272.828 923.812 272.828 912.545C272.828 901.212 275.728 892.312 281.528 885.845C287.395 879.378 294.695 876.145 303.428 876.145ZM360.983 945.445C360.983 946.778 357.683 947.445 351.083 947.445C344.483 947.445 341.183 946.778 341.183 945.445V895.245H329.183C328.049 895.245 327.249 893.712 326.783 890.645C326.583 889.178 326.483 887.678 326.483 886.145C326.483 884.612 326.583 883.112 326.783 881.645C327.249 878.578 328.049 877.045 329.183 877.045H372.683C373.816 877.045 374.616 878.578 375.083 881.645C375.283 883.112 375.383 884.612 375.383 886.145C375.383 887.678 375.283 889.178 375.083 890.645C374.616 893.712 373.816 895.245 372.683 895.245H360.983V945.445ZM422.078 928.045H382.578C381.378 928.045 380.511 927.078 379.978 925.145C379.711 924.145 379.578 923.178 379.578 922.245C379.578 921.312 379.711 920.345 379.978 919.345C380.511 917.412 381.378 916.445 382.578 916.445H422.078C423.278 916.445 424.145 917.412 424.678 919.345C424.945 920.345 425.078 921.312 425.078 922.245C425.078 923.178 424.945 924.145 424.678 925.145C424.145 927.078 423.278 928.045 422.078 928.045ZM463.717 945.445C463.717 946.778 460.417 947.445 453.817 947.445C447.217 947.445 443.917 946.778 443.917 945.445V895.245H431.917C430.784 895.245 429.984 893.712 429.517 890.645C429.317 889.178 429.217 887.678 429.217 886.145C429.217 884.612 429.317 883.112 429.517 881.645C429.984 878.578 430.784 877.045 431.917 877.045H475.417C476.551 877.045 477.351 878.578 477.817 881.645C478.017 883.112 478.117 884.612 478.117 886.145C478.117 887.678 478.017 889.178 477.817 890.645C477.351 893.712 476.551 895.245 475.417 895.245H463.717V945.445ZM538.213 945.345C538.213 946.478 534.846 947.045 528.113 947.045C521.379 947.045 518.013 946.478 518.013 945.345V922.345H504.013V945.345C504.013 946.478 500.646 947.045 493.913 947.045C487.179 947.045 483.813 946.478 483.813 945.345V879.045C483.813 877.645 487.179 876.945 493.913 876.945C500.646 876.945 504.013 877.645 504.013 879.045V902.545H518.013V879.245C518.013 878.312 519.679 877.645 523.013 877.245C524.746 877.112 526.446 877.045 528.113 877.045L533.213 877.245C536.546 877.645 538.213 878.312 538.213 879.245V945.345ZM567.268 945.645C567.268 946.712 564.101 947.245 557.768 947.245C551.368 947.245 548.168 946.745 548.168 945.745V880.545C548.168 878.212 549.401 877.045 551.868 877.045H570.968C588.501 877.045 597.268 883.878 597.268 897.545C597.268 901.678 596.468 905.445 594.868 908.845C593.268 912.178 591.001 914.845 588.068 916.845L600.668 937.845C600.135 939.445 598.401 941.278 595.468 943.345C591.468 946.212 588.168 947.645 585.568 947.645C582.968 947.645 581.035 946.712 579.768 944.845L570.368 922.945H567.268V945.645ZM567.268 894.745V909.745H567.768C574.101 909.745 577.268 907.112 577.268 901.845C577.268 899.445 576.635 897.678 575.368 896.545C574.168 895.345 572.168 894.745 569.368 894.745H567.268ZM639.652 904.845C640.919 904.845 641.552 907.178 641.552 911.845C641.552 913.245 641.386 914.912 641.052 916.845C640.786 918.712 640.252 919.645 639.452 919.645H626.752V929.645H645.152C646.286 929.645 647.052 931.112 647.452 934.045C647.652 935.312 647.752 936.678 647.752 938.145C647.752 939.545 647.552 941.378 647.152 943.645C646.752 945.912 646.086 947.045 645.152 947.045H610.952C608.419 947.045 607.152 946.012 607.152 943.945V879.645C607.152 877.912 607.919 877.045 609.452 877.045H645.252C646.652 877.045 647.352 880.012 647.352 885.945C647.352 891.812 646.652 894.745 645.252 894.745H626.752V904.845H639.652ZM688.969 904.845C690.235 904.845 690.869 907.178 690.869 911.845C690.869 913.245 690.702 914.912 690.369 916.845C690.102 918.712 689.569 919.645 688.769 919.645H676.069V929.645H694.469C695.602 929.645 696.369 931.112 696.769 934.045C696.969 935.312 697.069 936.678 697.069 938.145C697.069 939.545 696.869 941.378 696.469 943.645C696.069 945.912 695.402 947.045 694.469 947.045H660.269C657.735 947.045 656.469 946.012 656.469 943.945V879.645C656.469 877.912 657.235 877.045 658.769 877.045H694.569C695.969 877.045 696.669 880.012 696.669 885.945C696.669 891.812 695.969 894.745 694.569 894.745H676.069V904.845H688.969ZM746.785 928.045H707.285C706.085 928.045 705.218 927.078 704.685 925.145C704.418 924.145 704.285 923.178 704.285 922.245C704.285 921.312 704.418 920.345 704.685 919.345C705.218 917.412 706.085 916.445 707.285 916.445H746.785C747.985 916.445 748.852 917.412 749.385 919.345C749.652 920.345 749.785 921.312 749.785 922.245C749.785 923.178 749.652 924.145 749.385 925.145C748.852 927.078 747.985 928.045 746.785 928.045ZM795.724 877.045C796.858 877.045 797.424 880.012 797.424 885.945C797.424 891.812 796.858 894.745 795.724 894.745H777.424V906.145H789.624C790.758 906.145 791.324 908.745 791.324 913.945C791.324 919.078 790.791 921.645 789.724 921.645H777.424V945.745C777.424 946.678 776.158 947.278 773.624 947.545C771.158 947.878 769.091 948.045 767.424 948.045L762.724 947.845C759.458 947.445 757.824 946.778 757.824 945.845V879.645C757.824 878.578 758.024 877.878 758.424 877.545C758.891 877.212 759.558 877.045 760.424 877.045H795.724ZM812.092 929.845V894.245H804.992C803.859 894.245 803.059 892.812 802.592 889.945C802.392 888.545 802.292 887.112 802.292 885.645C802.292 884.178 802.392 882.745 802.592 881.345C803.059 878.478 803.859 877.045 804.992 877.045H838.592C839.726 877.045 840.492 878.478 840.892 881.345C841.159 882.745 841.292 884.178 841.292 885.645C841.292 887.112 841.159 888.545 840.892 889.945C840.492 892.812 839.726 894.245 838.592 894.245H831.892V929.845H838.892C840.026 929.845 840.826 931.278 841.292 934.145C841.559 935.545 841.692 936.978 841.692 938.445C841.692 939.912 841.559 941.345 841.292 942.745C840.826 945.612 840.026 947.045 838.892 947.045H805.192C804.059 947.045 803.292 945.612 802.892 942.745C802.626 941.345 802.492 939.912 802.492 938.445C802.492 936.978 802.626 935.545 802.892 934.145C803.292 931.278 804.059 929.845 805.192 929.845H812.092ZM897.463 895.145C897.463 902.078 894.463 907.345 888.463 910.945C891.73 912.145 894.463 914.212 896.663 917.145C898.863 920.078 899.963 924.245 899.963 929.645C899.963 934.978 897.963 939.212 893.963 942.345C890.03 945.478 884.363 947.045 876.963 947.045H853.363C852.23 947.045 851.297 946.678 850.563 945.945C849.83 945.145 849.463 944.112 849.463 942.845V878.845C849.463 878.112 849.563 877.645 849.763 877.445C850.03 877.178 850.53 877.045 851.263 877.045H874.063C889.663 877.045 897.463 883.078 897.463 895.145ZM868.663 893.245V906.345H869.163C875.563 906.345 878.763 904.212 878.763 899.945C878.763 897.612 878.13 895.912 876.863 894.845C875.663 893.778 873.63 893.245 870.763 893.245H868.663ZM868.663 918.145V931.145H870.463C873.33 931.145 875.43 930.612 876.763 929.545C878.097 928.478 878.763 926.778 878.763 924.445C878.763 922.112 878.13 920.478 876.863 919.545C875.663 918.612 873.63 918.145 870.763 918.145H868.663ZM940.238 904.845C941.505 904.845 942.138 907.178 942.138 911.845C942.138 913.245 941.972 914.912 941.638 916.845C941.372 918.712 940.838 919.645 940.038 919.645H927.338V929.645H945.738C946.872 929.645 947.638 931.112 948.038 934.045C948.238 935.312 948.338 936.678 948.338 938.145C948.338 939.545 948.138 941.378 947.738 943.645C947.338 945.912 946.672 947.045 945.738 947.045H911.538C909.005 947.045 907.738 946.012 907.738 943.945V879.645C907.738 877.912 908.505 877.045 910.038 877.045H945.838C947.238 877.045 947.938 880.012 947.938 885.945C947.938 891.812 947.238 894.745 945.838 894.745H927.338V904.845H940.238ZM976.155 945.645C976.155 946.712 972.988 947.245 966.655 947.245C960.255 947.245 957.055 946.745 957.055 945.745V880.545C957.055 878.212 958.288 877.045 960.755 877.045H979.855C997.388 877.045 1006.15 883.878 1006.15 897.545C1006.15 901.678 1005.35 905.445 1003.75 908.845C1002.15 912.178 999.888 914.845 996.955 916.845L1009.55 937.845C1009.02 939.445 1007.29 941.278 1004.35 943.345C1000.35 946.212 997.055 947.645 994.455 947.645C991.855 947.645 989.921 946.712 988.655 944.845L979.255 922.945H976.155V945.645ZM976.155 894.745V909.745H976.655C982.988 909.745 986.155 907.112 986.155 901.845C986.155 899.445 985.521 897.678 984.255 896.545C983.055 895.345 981.055 894.745 978.255 894.745H976.155Z" fill="#00D8FF"/>
</svg>
