<svg width="4400" height="4400" viewBox="0 0 4400 4400" fill="none" xmlns="http://www.w3.org/2000/svg">
<path d="M1389.5 3732C1389.5 3738.67 1373 3742 1340 3742C1307 3742 1290.5 3738.67 1290.5 3732V3481H1230.5C1224.83 3481 1220.83 3473.33 1218.5 3458C1217.5 3450.67 1217 3443.17 1217 3435.5C1217 3427.83 1217.5 3420.33 1218.5 3413C1220.83 3397.67 1224.83 3390 1230.5 3390H1448C1453.67 3390 1457.67 3397.67 1460 3413C1461 3420.33 1461.5 3427.83 1461.5 3435.5C1461.5 3443.17 1461 3450.67 1460 3458C1457.67 3473.33 1453.67 3481 1448 3481H1389.5V3732ZM1761.98 3731.5C1761.98 3737.17 1745.14 3740 1711.48 3740C1677.81 3740 1660.98 3737.17 1660.98 3731.5V3616.5H1590.98V3731.5C1590.98 3737.17 1574.14 3740 1540.48 3740C1506.81 3740 1489.98 3737.17 1489.98 3731.5V3400C1489.98 3393 1506.81 3389.5 1540.48 3389.5C1574.14 3389.5 1590.98 3393 1590.98 3400V3517.5H1660.98V3401C1660.98 3396.33 1669.31 3393 1685.98 3391C1694.64 3390.33 1703.14 3390 1711.48 3390L1736.98 3391C1753.64 3393 1761.98 3396.33 1761.98 3401V3731.5ZM1907.25 3733C1907.25 3738.33 1891.42 3741 1859.75 3741C1827.75 3741 1811.75 3738.5 1811.75 3733.5V3407.5C1811.75 3395.83 1817.92 3390 1830.25 3390H1925.75C2013.42 3390 2057.25 3424.17 2057.25 3492.5C2057.25 3513.17 2053.25 3532 2045.25 3549C2037.25 3565.67 2025.92 3579 2011.25 3589L2074.25 3694C2071.59 3702 2062.92 3711.17 2048.25 3721.5C2028.25 3735.83 2011.75 3743 1998.75 3743C1985.75 3743 1976.09 3738.33 1969.75 3729L1922.75 3619.5H1907.25V3733ZM1907.25 3478.5V3553.5H1909.75C1941.42 3553.5 1957.25 3540.33 1957.25 3514C1957.25 3502 1954.09 3493.17 1947.75 3487.5C1941.75 3481.5 1931.75 3478.5 1917.75 3478.5H1907.25ZM2269.18 3529C2275.51 3529 2278.68 3540.67 2278.68 3564C2278.68 3571 2277.84 3579.33 2276.18 3589C2274.84 3598.33 2272.18 3603 2268.18 3603H2204.68V3653H2296.68C2302.34 3653 2306.18 3660.33 2308.18 3675C2309.18 3681.33 2309.68 3688.17 2309.68 3695.5C2309.68 3702.5 2308.68 3711.67 2306.68 3723C2304.68 3734.33 2301.34 3740 2296.68 3740H2125.68C2113.01 3740 2106.68 3734.83 2106.68 3724.5V3403C2106.68 3394.33 2110.51 3390 2118.18 3390H2297.18C2304.18 3390 2307.68 3404.83 2307.68 3434.5C2307.68 3463.83 2304.18 3478.5 2297.18 3478.5H2204.68V3529H2269.18ZM2515.76 3529C2522.09 3529 2525.26 3540.67 2525.26 3564C2525.26 3571 2524.42 3579.33 2522.76 3589C2521.42 3598.33 2518.76 3603 2514.76 3603H2451.26V3653H2543.26C2548.92 3653 2552.76 3660.33 2554.76 3675C2555.76 3681.33 2556.26 3688.17 2556.26 3695.5C2556.26 3702.5 2555.26 3711.67 2553.26 3723C2551.26 3734.33 2547.92 3740 2543.26 3740H2372.26C2359.59 3740 2353.26 3734.83 2353.26 3724.5V3403C2353.26 3394.33 2357.09 3390 2364.76 3390H2543.76C2550.76 3390 2554.26 3404.83 2554.26 3434.5C2554.26 3463.83 2550.76 3478.5 2543.76 3478.5H2451.26V3529H2515.76ZM2679.34 3741.5C2679.34 3743.83 2663.51 3745 2631.84 3745C2600.51 3745 2584.84 3744 2584.84 3742V3652C2584.84 3649 2600.51 3647.5 2631.84 3647.5C2663.51 3647.5 2679.34 3648.33 2679.34 3650V3741.5ZM2693.6 3695C2693.6 3685.33 2696.43 3674.17 2702.1 3661.5C2707.76 3648.5 2713.93 3639.67 2720.6 3635C2733.26 3644.33 2746.1 3649 2759.1 3649L2774.6 3646.5C2792.6 3641.17 2801.93 3626.83 2802.6 3603.5V3476H2762.6C2756.93 3476 2752.93 3468.83 2750.6 3454.5C2749.6 3447.5 2749.1 3440.33 2749.1 3433C2749.1 3425.67 2749.6 3418.5 2750.6 3411.5C2752.93 3397.17 2756.93 3390 2762.6 3390H2881.6C2888.26 3390 2893.26 3392 2896.6 3396C2899.93 3399.67 2901.6 3404.17 2901.6 3409.5V3645.5C2901.6 3678.17 2890.6 3703 2868.6 3720C2846.93 3737 2820.76 3745.5 2790.1 3745.5C2759.76 3745.5 2736.1 3741 2719.1 3732C2702.1 3723 2693.6 3710.67 2693.6 3695ZM2958.05 3618C2964.39 3623 2975.22 3629.83 2990.55 3638.5C3006.22 3647.17 3021.05 3651.5 3035.05 3651.5C3049.39 3651.5 3056.55 3646 3056.55 3635C3056.55 3630 3054.55 3625.67 3050.55 3622C3046.55 3618 3039.22 3613.5 3028.55 3608.5C3017.89 3603.5 3009.89 3599.67 3004.55 3597C2999.22 3594 2992.05 3589.33 2983.05 3583C2974.39 3576.33 2967.72 3569.5 2963.05 3562.5C2949.72 3543.5 2943.05 3519.33 2943.05 3490C2943.05 3460.67 2953.89 3436 2975.55 3416C2997.55 3395.67 3026.22 3385.5 3061.55 3385.5C3085.55 3385.5 3107.72 3388.17 3128.05 3393.5C3148.39 3398.5 3158.89 3405.17 3159.55 3413.5C3159.55 3414.5 3159.55 3415.5 3159.55 3416.5C3159.55 3428.17 3155.89 3443 3148.55 3461C3141.22 3478.67 3136.05 3488.5 3133.05 3490.5C3111.72 3479.5 3092.55 3474 3075.55 3474C3058.89 3474 3050.55 3480 3050.55 3492C3050.55 3499.33 3056.72 3505.83 3069.05 3511.5C3071.72 3512.83 3075.55 3514.67 3080.55 3517C3085.55 3519.33 3091.22 3522.17 3097.55 3525.5C3104.22 3528.5 3111.22 3532.5 3118.55 3537.5C3126.22 3542.17 3134.39 3548.5 3143.05 3556.5C3160.72 3573.17 3169.55 3595.17 3169.55 3622.5C3169.55 3658.17 3159.72 3687.33 3140.05 3710C3120.39 3732.67 3090.05 3744.33 3049.05 3745C3029.05 3745 3010.89 3743.33 2994.55 3740C2978.55 3736.67 2964.55 3730.17 2952.55 3720.5C2940.55 3710.83 2934.55 3699.17 2934.55 3685.5C2934.55 3671.83 2937.05 3658.33 2942.05 3645C2947.05 3631.33 2952.39 3622.33 2958.05 3618Z" fill="#61B645"/>
<path d="M3443.5 1199.5L956 493L1590 3009.5L3443.5 1199.5Z" stroke="#61B645" stroke-width="115"/>
<path d="M1580.5 677L1116 1127L1735 1306L1580.5 677Z" stroke="#61B645" stroke-width="115" stroke-linejoin="bevel"/>
<path d="M2199.5 856.5L1735 1306.5L2354 1485.5L2199.5 856.5Z" stroke="#61B645" stroke-width="115" stroke-linejoin="bevel"/>
<path d="M2818.5 1036L2354 1486L2973 1665L2818.5 1036Z" stroke="#61B645" stroke-width="115" stroke-linejoin="bevel"/>
<path d="M1739.5 1305.5L1275 1755.5L1894 1934.5L1739.5 1305.5Z" stroke="#61B645" stroke-width="115" stroke-linejoin="bevel"/>
<path d="M2364.5 1485.5L1900 1935.5L2519 2114.5L2364.5 1485.5Z" stroke="#61B645" stroke-width="115" stroke-linejoin="bevel"/>
<path d="M1890.5 1933.5L1426 2383.5L2045 2562.5L1890.5 1933.5Z" stroke="#61B645" stroke-width="115" stroke-linejoin="bevel"/>
</svg>
